<svg xmlns="http://www.w3.org/2000/svg" viewBox="0 0 360 360">
  <g fill="none" stroke="#1B4332" stroke-width="1.6" opacity="0.11">
    <path d="M180 158 C 206 158, 218 178, 210 196 C 222 210, 206 234, 184 228 C 168 240, 146 224, 150 204 C 136 192, 150 166, 174 170 Z"/>
    <path d="M180 130 C 224 128, 248 164, 234 196 C 254 222, 224 264, 186 254 C 158 274, 120 246, 126 210 C 104 186, 130 138, 170 144 Z"/>
    <path d="M180 100 C 244 96, 282 150, 260 196 C 290 234, 244 296, 188 282 C 146 312, 92 270, 100 216 C 70 180, 110 110, 168 118 Z"/>
    <path d="M180 66 C 266 60, 318 134, 290 196 C 330 248, 266 332, 190 314 C 132 354, 60 296, 70 222 C 32 174, 88 78, 166 88 Z"/>
    <path d="M180 30 C 290 22, 356 116, 320 196 C 372 262, 290 370, 192 348 C 116 400, 26 324, 40 228 C -10 166, 64 44, 162 56 Z"/>
  </g>
</svg>
