<svg xmlns="http://www.w3.org/2000/svg" viewBox="0 0 1440 660" preserveAspectRatio="none">
  <g fill="none" stroke="#1B4332" stroke-width="2" opacity="0.10" stroke-linecap="round">
    <path d="M-60 40 C 320 -10, 580 110, 900 50 S 1340 0, 1520 40"/>
    <path d="M-60 104 C 300 60, 560 178, 880 110 S 1320 64, 1520 104"/>
    <path d="M-60 172 C 340 120, 600 240, 920 176 S 1340 128, 1520 168"/>
    <path d="M-60 244 C 300 196, 560 316, 880 248 S 1320 200, 1520 240"/>
    <path d="M-60 318 C 340 268, 600 392, 920 320 S 1340 276, 1520 316"/>
    <path d="M-60 396 C 300 344, 560 470, 880 398 S 1320 352, 1520 392"/>
    <path d="M-60 476 C 340 424, 600 552, 920 480 S 1340 432, 1520 472"/>
    <path d="M-60 560 C 300 506, 560 636, 880 562 S 1320 516, 1520 556"/>
  </g>
</svg>
