<svg xmlns="http://www.w3.org/2000/svg" width="1200" height="560" viewBox="0 0 1200 560"><path d="M1.465 0v2.795c0 1.001.001 1.002 1.32 1.002l.131-.11c1.32 0 1.32 0 1.32-1.001V0Zm25.91 0c10.556 15.12 31.834 19.48 57.621 23.244v-.02c20.487 3.005 63.122 9.114 76.024-9.613 2.651-3.9 4.053-8.712 4.959-13.611h-2.784c-.833 4.644-2.002 9.166-4.511 12.78-12.005 17.434-53.294 11.425-73.174 8.511C61.109 17.747 40.885 13.646 30.492 0Zm31.436 0c6.926 3.955 15.517 6.712 26.066 8.533l.066-.01c6.2 1.002 12.004 1.602 17.268 1.602 13.465 0 23.985-3.418 31.23-10.125h-3.58c-9.538 7.806-24.404 10.015-44.43 6.55C76.665 5.05 69.358 2.93 63.29 0Zm140.44 0c2.114 4.305 4.874 7.487 6.33 9.004v.08c8.442 4.106 15.949 5.809 22.73 5.809 13.518 0 24.459-6.772 35.236-14.893h-3.15c-15.313 11.348-30.263 18.701-52.97 7.742-1.3-1.422-3.608-4.132-5.488-7.742Zm103.923 0c-2.914 2.374-5.748 4.773-8.535 7.14-8.839 7.511-17.216 14.542-27.268 20.34-5.804 3.405-12.4 6.209-18.904 8.913-6.728 2.904-13.865 5.908-19.92 9.513-17.308 10.415-17.756 20.83-18.627 39.746v9.313c0 4.306-1.318 8.813-1.318 13.19-1.32 11.966-2.242 24.284-1.319 33.917 4.09 24.565 41.989 25.386 82.131 26.297 7.52 0 15.17 0 22.809 1.002 7.255 0 14.721 1.001 21.99 1.201 19.59 1.202 38.125 2.203 54.482 1.102 13.733-1.002 26.633-3.104 39.178-5.207 28.23-4.807 54.866-9.314 83.584 1.902 11.477 5.408 23.362 11.656 34.852 17.725 3.43 1.702 6.596 3.504 9.894 5.207 6.992 3.605 14.233 6.91 21.277 10.013 10.29 4.607 20.078 9.014 27.043 13.84 7.124 5.108 18.39 16.164 12.797 33.559-3.825 11.827-10.422 20.158-19.3 24.113-6.332 2.804-13.865 3.406-22.149 1.703-8.179-1.702-16.713-4.808-25.842-8.213-6.2-2.203-12.401-4.505-18.865-6.507-8.443-2.504-15.131-4.308-22.004-5.61v-.058c-15.078-2.904-46.473-8.913-64.558-4.006-21.516 5.808-34.55 26.898-46.053 48.008-4.222 7.61-7.652 14.819-11.082 21.859-2.77 5.808-5.409 11.307-8.31 16.785-4.882 9.313-11.476 17.974-18.362 27.207-7.651 10.114-15.422 20.59-21.635 32.547-3.298 6.309-6.464 12.848-9.498 19.197-19.458 40.277-39.694 81.936-100.402 88.164-44.944 4.607-67.726-5.808-89.717-15.882-13.759-6.31-26.805-12.268-44.35-14.02-12.004-1.202-30.09-2.403-47.754 1.402-18.996 4.006-28.824 13.408-39.18 23.362-2.506 2.403-5.012 4.807-7.782 7.21v3.005c3.43-3.005 6.727-6.008 9.761-9.012 10.158-9.714 19.695-18.838 37.82-22.703 17.269-3.706 34.96-2.504 46.713-1.403 17.057 1.703 29.812 7.612 43.413 13.75 17.808 8.212 37.662 17.285 70.562 17.285 6.464 0 13.337 0 20.817-1.101 62.264-6.41 82.711-48.62 102.486-89.457 3.034-6.309 6.332-12.868 9.498-19.137 6.2-11.857 13.997-22.24 21.543-32.305 6.86-9.313 13.508-18.045 18.455-27.459 2.902-5.507 5.541-11.015 8.443-16.833 3.43-7.01 6.858-14.261 10.948-21.782 11.212-20.689 24.035-41.337 44.535-46.875 17.307-4.706 48.176 1.202 63.004 4.006 6.727 1.302 13.416 3.003 21.687 5.406 6.332 1.903 12.532 4.207 18.666 6.41 9.234 3.405 17.902 6.609 26.266 8.311 9.102 1.803 17.24 1.203 24.18-2.002 9.497-4.306 16.541-13.008 20.591-25.346 5.936-18.385-5.936-30.152-13.588-35.51-7.123-5.006-17.042-9.413-27.543-14.08-6.991-3.104-14.22-6.308-21.027-9.913-3.298-1.703-6.597-3.405-9.894-5.208-11.477-6.108-23.416-12.428-35.051-17.845-29.668-11.577-56.763-7.01-85.442-2.203-12.4 2.103-25.354 4.305-38.902 5.207-16.12 1.101-34.483.04-54.033-1.102-7.256 0-14.722-1-22.043-1.201-7.651 0-15.397 0-22.85-1.002-40.683-1.001-75.773-1.702-79.625-24.574-1.583-9.413.001-21.672 1.32-33.498 0-4.406 1.319-8.913 1.319-13.219v-9.313c1.319-18.345 1.32-28.429 17.678-38.292 5.936-3.505 12.796-6.511 19.59-9.315 6.463-2.704 13.216-5.607 19.18-9.012 10.157-5.908 19.087-13.37 27.57-20.59 3.22-2.662 6.447-5.38 9.77-8.062Zm30.953 0a645 645 0 0 0-27.498 21.691c-8.707 7.31-19.365 13.69-29.72 19.909-18.76 11.356-36.541 22.071-43.177 37.443-3.693 8.612-11.61 30.682-5.41 51.121 5.805 19.247 29.59 23.483 51.45 25.967 36.132 4.106 78.068 7.411 115.519 1.303 9.366-1.503 18.864-3.506 27.992-5.409 27.413-5.608 53.176-10.974 79.256-6.107 15.368 2.904 27.003 9.311 39.272 16.121 1.319 1.001 2.638 1.403 3.826 2.104 12.664 6.91 26.475 14.14 43.927 19.408 28.824 8.612 56.092 16.884 62.635 42.11 1.32 4.606 1.32 11.064 0 14.368-1.319 5.608-3.3 10.847-5.41 15.924-2.243 5.508-4.484 11.125-5.539 17.203v1.303c-1.32 5.207-1.98 11.035 1.318 15.781 6.2 9.814 21.358 11.746 34.088 11.746 5.145 0 9.894.001 13.416-1 18.126-1.201 31.844-10.726 43.215-19.568 1.451-1.202 2.904-2.404 4.223-3.605 3.693-3.205 7.387-6.408 12.4-8.311 6.068-2.403 13.191-3.405 19.893-4.406h1.318c4.881-1.002 10.29-1.302 15.488-1.803 18.139-1.803 36.896-3.606 47.766-15.543 5.936-10.975 1.848-28.85-1.318-41.889v-2.802c-2.111-9.614-5.805-17.906-10.686-24.705-9.498-12.999-23.455-22.503-42.49-29.092-1.451-1.002-3.034-1.101-4.617-1.602-6.728-2.403-13.549-4.808-20.725-6.01-12.004-2.002-26.21-1.001-37.266 0-4.485 0-8.707 1.502-12.796 2.604-4.618 1.202-8.97 2.305-13.758 2.605-9.103 1.002-18.048 0-25.633-1.603-12.928-2.804-23.955-9.613-32.898-20.108-5.805-6.91-11.743-15.752-17.97-25.166a546 546 0 0 0-13.48-19.847 1040 1040 0 0 1-11.74-16.414c-3.826-5.308-7.52-10.605-11.346-15.762-4.09-5.708-8.179-10.905-12.136-15.912C556.964 21.2 549.373 11.547 544.293 0h-2.84c5.169 12.01 12.938 21.913 21.701 33.078 3.958 5.007 7.915 10.104 12.004 15.842 3.694 5.107 7.52 10.415 11.213 15.742 3.958 5.508 7.785 10.986 11.742 16.443 4.75 6.61 9.234 13.32 13.455 19.758 6.2 9.514 12.137 18.396 18.086 25.366 9.234 10.925 20.855 17.987 34.364 20.95 7.915 1.703 17.083 2.303 26.568 1.602 5.013 0 9.761-1.501 14.365-2.703 3.958-1.001 8.048-2.003 12.27-2.504 10.817-1.201 24.694-2.303 36.369 0 6.86 1.102 13.627 3.505 20.17 5.908 1.583 1.002 3.034 1.101 4.617 1.602 18.495 6.409 31.99 15.662 41.264 28.26 4.88 6.61 8.31 14.681 10.422 24.064v2.805c2.77 12.047 6.858 30.232 1.318 40.717-10.29 11.105-28.414 12.897-45.96 14.59-5.144 1-10.553 1.101-15.58 1.802h-1.318c-6.991 1.102-14.181 2.104-20.671 4.608-5.277 2.103-9.235 5.508-13.061 8.812a62 62 0 0 1-4.22 3.504c-11.082 8.612-24.327 17.876-41.542 19.018-18.323 1.201-37.992 1.001-44.957-10.084-2.506-4.206-1.582-9.815-1.318-14.672v-1.403c1.32-5.908 3.166-11.203 5.408-16.841 2.11-5.108 4.221-10.445 5.408-16.213 1.32-3.405 1.32-10.176 0-15.063-6.86-26.267-34.786-34.68-64.27-43.582-17.228-5.207-30.815-12.287-43.347-19.146-1.319-1.002-2.507-1.4-3.826-2.102-12.532-6.91-24.351-13.499-40.168-16.443-26.726-5.007-52.9-.001-80.576 6.107-9.102 1.903-18.44 3.807-27.807 5.309-37.082 6.008-78.768 2.703-114.623-1.402-26.053-3.005-44.443-8.213-49.31-24.456-6.2-20.498 2.506-43.481 5.408-50.04 6.464-14.791 23.917-25.335 42.412-36.51 10.421-6.21 21.094-12.739 29.998-20.13A639 639 0 0 1 336.143 0Zm25.062 0c-12.827 8.638-25.468 17.95-37.773 27.02-9.63 7.21-18.903 13.94-27.504 19.828-1.32 1.001-2.507 1.701-3.826 2.703-13.416 9.113-33.678 22.912-38.994 33.937-2.77 5.708-4.222 9.815-5.278 15.063-3.034 14.48-1.317 25.305 6.862 33.086 10.817 11.115 30.894 14.211 48.928 16.244 32.596 3.705 63.32 3.505 86.498 0 11.872-2.103 22.45-4.407 33.544-6.91 10.422-2.304 21.12-4.707 33.112-6.91v-.07c19.669-3.506 41.937-7.41 61.988-3.104 11.477 2.503 21.212 7.81 30.578 13.047 12.928 7.21 26.265 14.53 44.272 14.53h8.047v-.06c11.344-6.609 8.574-16.072 6.595-23.002V134.4c-4.485-15.351-15.539-33.946-24.39-46.244-5.145-7.01-10.291-14.692-15.33-22.062-7.52-11.196-15.448-22.752-23.442-33.137-1.583-2.003-3.034-3.904-4.617-5.807-7.036-8.992-13.526-17.22-18.193-27.15h-2.846c4.841 10.592 11.668 19.238 18.758 28.22 1.45 1.903 3.033 3.806 4.484 5.81 7.915 10.324 15.818 21.87 23.416 33.046 5.013 7.41 10.159 15.042 15.317 22.092 8.838 12.187 19.72 30.612 24.14 45.713v1.002c1.979 7.01 4.353 15.001-5.277 20.84-21.001 2.403-35.13-5.407-50.09-13.72-9.63-5.307-19.482-10.814-31.395-13.378-20.684-4.506-43.321 0-63.32 3.104v.07c-12.004 2.103-22.808 4.607-33.203 6.91-11.081 2.503-21.517 4.805-33.363 6.908-22.914 3.906-53.321 4.106-85.588 0-17.492-2.003-37.03-4.906-47.213-15.441-7.124-7.31-9.102-17.674-6.332-31.614 1.32-5.107 2.374-9.113 5.144-14.681 5.145-10.545 25.052-24.134 38.23-33.137a461 461 0 0 1 3.958-2.703c8.575-5.908 17.809-12.738 27.531-19.918C335.977 19.328 349.691 9.226 363.555 0Zm131.229 0-.041.072s-1.32 1 0 1.4c2.243 2.805 4.616 5.81 7.65 9.415h.528l.002-.002c.018-.01.164-.042 1.318.002 0 0 1.32-1.002 0-1.403-3.034-3.605-5.41-6.608-7.652-9.412 0 0-.038-.03-.104-.072zm76.148 0c1.972 4.384 4.55 9.439 7.024 13.57 8.574 14.34 23.085 36.021 38.902 58.002a943 943 0 0 1 6.86 9.713c6.2 9.013 12.136 17.415 18.666 24.385 8.838 9.413 18.138 15.582 28.586 18.896 14.365 4.507 31.58 4.407 45.392 4.307 3.034-.01 5.936 0 8.838 0 6.992 0 13.72-1 20.13 1.002 6.333 1.803 12.798 2.904 19.143 4.006 2.903 0 5.804 1 8.838 1.601 21.687 4.206 38.956 10.294 52.807 18.516 18.508 11.036 29.905 25.657 41.988 41.129 6.596 8.412 13.363 17.083 21.41 25.305 1.847 1.902 3.695 3.805 5.541 5.808 11.081 11.587 22.491 23.573 39.297 27.319 6.596 1.502 14.724 1.603 23.272 1.703 3.562.05 7.387 0 10.949 0h16.885c21.634 1.001 40.445 0 55.998-1.403 4.617-1.001 9.762-1.302 15.078-2.103 18.785-2.804 42.148-6.309 65.629-3.004 26.818 3.705 35.262 21.801 44.18 40.908 1.319 2.804 2.637 5.708 3.956 8.512 1.583 3.204 3.43 6.608 5.409 10.113 4.221 7.811 9.235 16.575 11.61 24.676 4.88 16.573-5.013 26.867-21.24 37.262-5.672 3.605-13.31 7.812-21.304 12.238-10.026 5.508-20.448 11.235-29.59 17.193-4.353 2.804-8.443 5.609-12.4 8.313-18.6 12.527-34.627 23.363-56.143 27.369-14.537 2.704-31.845 1.101-48.572 0-13.904-1.302-27.044-2.504-38.494-1.402-24.906 2.503-27.86 16.011-29.72 38.052v7.211c-1.452 15.502-3.563 36.743 0 50.041 2.77 10.375 9.629 15.62 24.456 18.795 8.707 1.903 18.76 2.705 28.852 2.705 15.817 0 31.634-2.003 42.226-5.008 11.61-3.304 20.908-8.41 29.905-13.347 8.047-4.406 15.58-8.614 24.67-11.508 22.175-7.01 49.982-1.3 72.355 3.406 6.728 1.402 13.232 2.703 18.957 3.604 12.457 1.887 23.464 1.994 33.088.976v-1.978c-9.457 1.032-20.305.952-32.613-.9-5.54-1.002-12.004-2.103-18.772-3.504-22.676-4.707-50.946-10.555-73.992-3.305-9.366 2.904-17.4 7.41-25.209 11.717-8.838 4.806-17.994 9.913-29.273 13.107-16.965 4.807-47.544 6.91-69.442 2.203-13.957-3.004-20.089-7.61-22.595-17.254-3.43-13.068-1.452-34.139 0-49.54v-7.21c1.846-22.932 5.275-34.007 27.45-36.22 11.082-1.102 24.088 0 37.821 1.402 16.99 1.602 34.536 3.204 49.535 0 22.083-4.106 38.348-15.083 57.225-27.81 3.957-2.704 8.047-5.507 12.4-8.311 9.103-5.909 19.446-11.606 29.446-17.084 8.046-4.507 15.67-8.613 21.449-12.338 16.938-10.875 27.187-21.68 22.095-39.186-2.374-8.311-7.388-17.204-11.609-25.035-1.979-3.605-3.825-6.91-5.408-10.035a694 694 0 0 0-3.957-8.512c-9.102-19.667-17.823-38.243-46.12-42.199-24.061-3.405-47.687 0-66.63 3.004-5.277 1.001-10.42 1.503-14.998 2.104-15.316 1.702-33.983 2.204-55.446 1.302-2.638-.09-5.673 0-8.443 0h-19.523c-8.311-.09-16.266 0-22.598-1.603-15.936-3.505-27.081-15.262-37.846-26.608-1.847-1.902-3.694-3.906-5.54-5.808-8.048-8.112-14.761-16.763-21.278-25.135-12.268-15.622-23.759-30.403-42.623-41.648-14.128-8.412-31.726-14.62-53.809-18.897-3.034-1.001-6.068-1.103-8.97-1.603-6.464-1.102-12.532-2.202-18.72-3.905-6.99-2.003-14.274-1.502-21.331-1.101h-8.705c-13.627.07-30.474-.001-44.352-4.207-10.026-3.105-19.036-9.113-27.478-18.205-6.332-6.81-12.269-15.262-18.508-24.145-2.243-3.204-4.485-6.508-6.86-9.713-15.816-21.93-30.301-43.55-38.81-57.88-2.294-3.903-4.728-8.635-6.652-12.821Zm62.655 0c1.582 18.081 8.554 36.78 17.082 51.254 7.123 12.788 21.686 23.863 37.898 28.91 5.54 1.702 11.345 2.504 16.912 3.205 2.77 0 5.673 1.001 8.444 1.201 8.178 1.402 17.082 5.308 24.931 11.006 4.09 2.904 8.179 4.907 13.192 6.309 3.034 1.001 6.2 1.503 8.838 2.004 7.915 1.502 15.686 3.604 23.271 5.607 12.136 3.205 24.681 6.51 37.807 7.711h8.97c9.63 0 18.495-1.502 26.397-4.406 8.706-8.312 1.32-22.263-3.693-31.516v-1C836.182 55.82 808.66 23.634 785.719 0h-3.117c23.127 23.67 51.328 56.522 64.595 81.316v1.002c4.485 8.212 11.742 21.9 4.223 29.32-9.762 3.606-21.173 4.807-33.691 3.706-12.796-1.102-25.21-4.407-37.163-7.612-7.65-2.002-15.592-4.105-23.546-5.607-2.639-1.001-5.674-1.1-8.444-2.002-4.749-1.402-8.442-3.104-12.267-5.908-8.311-5.908-17.598-10.015-26.225-11.528-2.77 0-5.673-1-8.443-1.2-5.805-1.002-11.081-1.502-16.41-3.104-15.58-4.907-29.576-15.552-36.489-27.85C640.657 36.24 633.655 17.791 631.965 0Zm35.664 0c-1.7 11.452-.961 25.807 8.09 38.316 4.485 6.21 9.895 10.714 16.187 13.588 5.145 2.304 10.42 2.804 15.684 3.405 2.638 0 5.277 1.002 7.916 1.002 10.421 1.902 18.297 7.21 25.539 12.488 3.825 2.804 8.706 4.506 13.574 6.209 2.374 1.001 4.88 1.702 7.123 2.703 1.583 1.001 3.166 1.402 4.617 2.103 6.332 2.804 12.797 5.707 19.815 7.61 2.374 1.001 10.949 2.504 18.086 2.504 4.88 0 8.047-1.001 9.498-2.703 6.991-8.613-1.32-18.497-6.993-25.737l-1.318-1.002c-2.242-2.804-5.014-5.908-7.916-9.113-2.11-2.403-4.353-4.906-6.596-7.51 0-1.001-1.318-1.502-1.845-2.203-3.43-3.805-7.125-8.212-9.104-12.347-1.979-4.307-4.484-7.11-7.65-10.575 0 0-1.32-1.002-1.32-1.603-3.562-4.106-6.595-8.412-9.63-12.688A357 357 0 0 0 755.453 0h-2.83c1.3 1.816 2.54 3.643 3.884 5.43 2.902 4.306 6.068 8.712 9.762 12.838 0 1.001 1.319 1.1 1.45 1.601 3.167 3.505 5.276 6.01 7.255 10.106 2.11 4.406 5.937 8.91 9.367 12.806 0 1.002 1.318 1.502 1.846 2.203a254 254 0 0 0 6.728 7.512c2.902 3.205 5.54 6.208 7.783 9.012l1.319 1.002c5.54 6.81 13.06 16.072 6.992 23.633-1.32 1.101-3.43 1.703-7.256 1.703-6.332 0-14.3-1.603-17.176-2.405-6.728-1.902-13.19-4.706-19.351-7.41-1.583-1.001-3.165-1.402-4.748-2.103-2.375-1.002-4.883-1.902-7.39-2.803-4.616-1.602-9.365-3.205-12.927-5.809-7.52-5.407-15.776-10.925-26.685-12.968-2.77-1.002-5.54-1.002-8.31-1.102-5.146-1.001-10.028-1-14.645-3.103-5.805-2.704-10.949-7.01-15.17-12.809-8.767-12.13-9.412-26.153-7.746-37.334Zm156.93 0c1.886 2.277 3.765 4.547 5.634 6.8l-.13.16c14.405 17.415 28.004 33.81 40.906 47.499l1.32 1c12.004 12.798 24.418 26.008 51.725 26.008 3.693 0 7.783 0 12.136-1.002 21.912-2.704 49.785-12.258 56.328-30.514 2.639-7.41 3.298-15.742 3.957-23.783 0-5.608 1.32-11.385 2.112-16.793A158 158 0 0 1 998.033 0h-2.625a171 171 0 0 0-2.191 9.055c-1.32 5.507-1.584 11.344-2.112 16.972 0 7.911-1.318 16.175-3.957 23.395-5.804 16.243-31.422 26.316-54.23 29.08-34.351 4.206-48.03-10.345-61.209-24.404l-1.32-1.002c-12.796-13.61-26.37-30.032-40.723-47.407Q827.299 2.856 824.92 0Zm16.453 0c4.574 5.272 9.262 10.467 13.904 15.613 7.651 8.512 15.644 17.354 22.82 26.227l-.039.281h.12c1.318 1.002 1.845 1.602 2.769 2.303 10.949 9.213 21.357 17.875 37.135 20.158 3.034 0 6.068 1.002 8.97 1.002 26.212 0 44.667-17.906 50.801-34.53 1.451-3.905 2.639-8.61 4.09-13.587 1.319-3.806 2.111-7.812 3.299-11.768A255 255 0 0 1 984.029 0h-2.68a230 230 0 0 0-1.72 5.209c-1.32 4.006-2.374 8.012-3.297 11.867-1.451 4.907-2.639 9.614-4.09 13.46-5.936 15.912-23.455 33.066-48.295 33.046-2.77 0-5.673 0-8.443-1.002-14.907-2.203-24.984-10.606-35.71-19.559-1.318-1-1.714-1.501-2.638-2.302-7.123-8.913-15.144-17.705-22.808-26.217-4.321-4.791-8.669-9.617-12.922-14.502Zm14.365 0c6.125 7.206 13.168 14.814 21.133 22.854 10.421 10.484 27.504 22.842 40.498 25.166l.04.029c2.77 0 5.41 1.002 8.048 1.002 14.721 0 24.694-7.512 30.367-13.9 3.825-4.207 8.046-11.036 11.08-17.715 2.092-4.708 4.748-10.797 7.44-17.436h-2.686a529 529 0 0 1-7.168 16.785c-2.902 6.41-7.123 13.178-10.817 17.254-5.408 5.908-14.577 13.04-28.177 13.04-2.375 0-4.882-.001-7.52-1.003-12.4-2.203-28.902-14.2-38.98-24.414-7.47-7.55-14.145-14.775-20.024-21.662Zm17.24 0c10.172 10.571 22.955 20.314 38.852 27.049l.435-.25v.1c2.902 0 5.54 1.001 7.914 1.001 11.873 0 18.06-3.804 25.447-10.894C946.84 12.897 951.158 6.894 954.963 0h-3.305c-3.523 6.144-7.413 11.463-11.22 15.104-6.992 6.709-12.533 10.113-23.364 10.113h-7.256C894.998 18.896 882.933 9.865 873.2 0Zm27.012 0c3.544 1.822 7.341 3.162 11.377 3.836l.052.06h5.278c5.178 0 10.132-1.329 14.654-3.896h-4.848a25.8 25.8 0 0 1-9.806 1.904h-4.881A34.6 34.6 0 0 1 901.834 0ZM1026.3 0a81 81 0 0 0-1.397 12.219c1.32 26.878 30.394 46.355 69.48 46.355l-.157.02h.053c1.978 0 4.088-.05 6.199 0 20.724-1.102 44.14-11.325 61.222-18.776 1.98-1.001 3.958-1.702 5.805-2.504a513 513 0 0 1 15.422-6.308c6.002-2.365 11.81-4.664 17.072-7.037v-2.317c-5.52 2.557-11.732 5.04-18.195 7.59a563 563 0 0 0-15.486 6.309c-1.847 1.001-3.826 1.703-5.805 2.504-16.859 7.31-39.997 17.454-60.088 18.515h-6.068c-37.583 0-65.722-18.665-66.817-44.351 0-4.233.394-8.313 1.137-12.219zm21.761 0a31.3 31.3 0 0 0-.363 5.879h.078c2.243 19.387 26.41 31.394 47.451 31.394 15.593 0 29.866-6.91 46.409-14.72 5.012-2.404 10.025-4.806 15.539-7.21 4.485-2.002 9.762-4.005 14.828-5.907 7.928-3.01 16.216-6.185 22.027-9.436h-4.62c-5.326 2.619-12.022 5.172-18.595 7.633-5.144 1.902-10.42 4.005-14.959 6.008-5.54 2.403-10.686 4.907-15.632 7.21-16.226 7.711-30.182 14.35-45.036 14.42-19.919 0-42.728-11.306-44.812-29.511a27.7 27.7 0 0 1 .217-5.76ZM386.6 3.344c-.255.013-.498.13-.663.443-3.825 2.203-7.651 4.405-11.609 6.809 0 0-1.319 1.001 0 1.402h1.32l-.66-.1v-.002h.002v-.002c.018-.012.162-.057 1.317.004 3.825-2.303 7.653-4.606 11.478-6.709 0 0 1.32-1.001 0-1.402 0 0-.624-.473-1.185-.443m622.738 1.119c-.563.04-.589.255-.688 1.006 0 3.705-1.318 7.41-1.318 11.105 0 1.002 0 1.002 1.318 1.002l.133-.08c1.32 0 1.319 0 1.319-1.002.026-3.605 0-7.309 1.32-10.924 0-1.001 0-1.001-1.32-1.101a8 8 0 0 0-.764-.006M600.145 7.2c-1.32 0-1.32 1.003-1.32 1.203 1.45 3.505 2.903 7.009 4.486 10.514l.263.1 1.319 1.002v-.061s1.32-1 1.32-1.3c-1.583-3.506-3.035-7.011-4.486-10.456 0-1.001-1.319-1.002-1.582-1.002m214.67 2.49c-.256.014-.498.133-.663.446 0 0-1.319 1 0 1.4 2.639 3.104 5.277 6.21 7.784 9.315h1.32v-.002h.002c.018-.008.162-.034 1.316.002 0 0 1.32-1.002 0-1.403l-7.914-9.312H816s-.624-.475-1.186-.446m-376.19 1.746c-14.577 0-32.122 4.106-46.844 10.936-22.267 10.295-49.693 25.936-69.81 39.846l-.106.21c-12.928 8.913-27.003 19.417-30.592 30.743-1.319 2.804 0 5.209 0 7.812v5.909h.094c4.75 11.726 25.592 18.755 55.8 18.755 10.027 0 20.052-1 28.27-2.302 11.477-2.103 26.99-6.81 43.454-11.826 2.902-1.002 5.672-1.805 8.574-2.606 3.957-1.202 7.915-2.303 11.61-3.404 16.45-4.807 30.59-8.812 42.146-16.073 11.476-7.11 17.994-14.42 19.445-21.7 3.826-18.977-16.411-41.118-38.23-51.592-6.596-3.105-14.577-4.707-23.811-4.707M4.697 12.61c-1.319 0-1.318 1.001-1.318 1.202 0 2.002 1.319 3.805 1.978 5.507 1.32 1.803 2.507 3.405 4.618 4.807h1.978v-1.402c-1.847-1.202-3.035-2.403-3.826-3.905-1.32-1.602-1.318-3.304-1.846-5.207-.105-1.001-1.32-1.002-1.584-1.002m433.717.922.106.12c8.706 0 16.264 1.502 22.412 4.406 21.08 10.084 40.723 31.424 37.029 49.57-1.32 6.71-7.783 13.73-18.547 20.44-11.213 7.01-25.209 11.074-41.355 15.78-3.826 1.102-7.652 2.203-11.61 3.405-2.902 1.001-5.805 1.702-8.707 2.603-16.41 5.008-31.87 9.715-43.137 11.768-8.046 1.502-17.808 2.303-27.636 2.303-10.817 0-46.566-1.202-53.254-17.164 0-2.304-.04-4.206 0-6.008v-7.211c3.43-10.805 17.227-21.02 29.865-29.742 19.985-13.84 47.2-29.39 69.35-39.645 14.365-6.61 31.356-10.625 45.484-10.625m-75.271 3.926c-3.826 2.403-7.52 4.906-11.082 7.209 0 0 0 1.002-.092 1.402h.752v-.002h.002v-.002c.018-.012.162-.057 1.316.004 3.562-2.403 7.256-4.807 10.95-7.21v-1.401zm143.302.826c-.255.014-.497.133-.662.446 0 0-1.319 1 0 1.4 2.902 3.605 5.277 6.61 7.52 9.414l-.791.1h1.318s.001-.03 1.32 0c0 0 1.32-1 0-1.4a590 590 0 0 0-7.52-9.514s-.624-.475-1.185-.446m502.998 8.125c-1.319.04-1.32 1.002-1.32 1.102 0 3.705 1.319 7.41 1.979 10.996 0 0 0 1.002 1.32 1.002v-.07q.029 0 .033-.003v-.002l-.024-.005c1.309-.006 1.309-1.004 1.309-1.204-1.32-3.504-1.583-7.209-1.979-10.814-.04-1.001 0-1.002-1.318-1.002m-986.091.352c-1.32 0-1.453-.002-1.584 1 0 1.001 0 1.103 1.32 1.203l-.08-.201c3.957 1.001 8.706 1.401 14.484 1.902 0 0 1.319.001 1.319-1 .092-1.001 0-1.001-1.319-1.102-5.672-1-10.288-1.101-14.14-1.802M609.59 28.12c-1.32 0-1.32 1.002-1.32 1.303a206 206 0 0 0 5.41 10.293h.263l1.319 1.002v-.07c1.319 0 1.318-1 1.318-1.301-1.847-3.305-3.56-6.71-5.275-10.225 0-1.001-1.32-1.002-1.715-1.002m220.672.307c-.255.013-.497.132-.662.445 0 0-1.32 1 0 1.4 2.506 3.205 5.013 6.31 7.52 9.514h1.32l.001-.002c.018-.007.163-.033 1.317.002 0 0 1.319-1.002 0-1.402-2.507-3.105-4.88-6.307-7.387-9.512h-.924s-.624-.475-1.185-.445M51.014 29.62c-.563.041-.587.253-.686 1.004-.092 1.001 0 1.001 1.318 1.102l.397-.01c4.485 0 8.838 1 12.531 1h1.715l.022.006h.002v.004l-.024.002s1.32 0 1.32-1.002c.093-1.002 0-1.102-1.32-1.102h-1.715c-3.825 0-8.178-1.002-12.795-1.002a8 8 0 0 0-.765-.002m290.494 2.436c-3.562 2.403-7.255 4.907-10.817 7.31 0 0 0 1.002-.093 1.403h.396v-.002h.002v-.002l.006-.004c.038-.018.239-.058 1.31.007 3.694-2.503 7.256-4.907 10.95-7.31 0 0 .001-1.002.094-1.402zm-260.774.42c-1.319 0-1.318 0-1.582 1.002-.118 1 0 1.1 1.319 1.2h.29c5.145 1.002 9.763 1.204 14.327 1.905 0 0 1.318 0 1.318-1.002 0-1.001.001-1.101-1.318-1.201-4.485-1.002-9.235-1.203-14.354-1.904m28.47 3.945c-1.32 0-1.453 0-1.585 1.002 0 1.001 0 1.1 1.319 1.201l.423-.04c5.013 1.002 9.762 1.503 14.116 2.304v.04s1.318 0 1.318-1.001c.119-1.002 0-1.001-1.318-1.201-4.486-1.002-9.235-1.504-14.274-2.305M519.79 38.29c-.263-.007-.508.101-.645.445 0 0-1.319 1.002 0 1.403 2.375 3.404 4.619 6.708 6.465 9.812l.528-.92 1.318 1v-.08s1.32-1 0-1.3c-1.847-3.105-4.09-6.41-6.596-9.915 0 0-.568-.432-1.07-.445m-382.36 3.04c-1.319 0-1.45 0-1.581 1.001 0 1.001-.001 1.101 1.318 1.201l.396.049h1.582a247 247 0 0 1 12.27 3.006v.049s1.318.001 1.318-1c0-1.002-.091-1.103-1.318-1.303-3.298-1.001-7.256-1.902-12.4-3.004zm-73.503 2.952c-17.967 0-31.963 3.006-40.498 8.514-13.403 8.712-19.102 28.51-16.912 58.812 1.978 14.38 8.18 29.09 18.046 42.559 13.812 18.957 26.264 33.177 38.124 43.451 8.31 7.21 20.421 11.348 33.138 11.348l-.105.02c13.495 0 25.208-4.608 31.302-12.329 1.32-1.001 1.32-1.702 1.584-2.603 0-1.002 1.319-1.502 1.319-2.203 2.77-3.706 5.54-7.51 8.707-11.577 15.724-20.729 33.638-44.263 36.263-66.254 2.507-20.719-6.991-39.183-26.08-50.66-17.73-10.695-55.035-19.078-84.888-19.078m359.13 1.182c-30.63 0-78.99 20.159-94.2 39.265-3.299 2.905-2.77 7.21-2.243 10.706.093 1.001 0 1.302 0 1.802l1.069.512c5.804 7.11 16 8.01 24.984 8.912v.04c24.945-1.303 62.91-15.812 82.725-28.52 8.31-5.308 16.661-11.856 12.136-22.701h-.092s-1.278-.974-1.318-1.1l-.002-.002c-3.825-3.305-8.31-7.01-14.088-7.912-2.77 0-5.673-1.002-8.97-1.002m-359.236.842c29.352 0 65.933 8.212 83.254 18.627 18.31 11.045 27.49 28.89 25.09 48.908-2.638 21.57-20.329 44.894-35.908 65.463-3.034 4.005-5.935 7.91-8.705 11.595 0 1.002-1.32 1.703-1.451 2.504 0 1.002-1.32 1.502-1.32 2.303-5.673 7.11-16.504 11.326-29.089 11.326-12.004 0-23.362-3.905-31.172-10.644-11.74-10.185-24.087-24.285-37.806-43.121-9.63-13.23-15.79-27.68-17.69-41.76l.026-.049c-2.11-29.181 3.43-48.96 15.988-57.14 8.047-5.208 21.515-8.012 38.783-8.012M1200 46.404c-2.778.165-5.739 1.024-8.592 1.475-1.319 0-1.318 1-1.318 1.201l1.318 1.002.528-.281q.03 0 .035-.002v-.004c-.01-.003-.023-.006-.03-.01v-.004c2.688-.887 5.377-1.066 8.065-1.305zm-880.443.242c-3.694 2.504-7.255 5.008-10.817 7.311 0 0 0 1.002-.093 1.402h1.32l-.486.057c.171-.008.473-.01 1.105.023 3.562-2.403 7.125-4.907 10.818-7.31v-1.402s-1.32 0-1.847-.08m-10.077 8.77q-.193.01-.209.02l-.002.002h-.002v.002zm535.711-8.002c-.263-.007-.508.101-.644.445 0 0-1.32 1.002 0 1.403 2.902 3.705 5.277 6.707 7.52 9.511h1.32c.018-.007.162-.035 1.316 0 0 0 1.32-1 0-1.4a1170 1170 0 0 0-7.517-9.514h-.924s-.568-.431-1.07-.445m-421.3.645c3.034 0 5.803 0 8.441 1.002 5.013 1.001 8.97 4.106 12.664 7.31l1.32 1.002c3.826 9.614-3.561 15.29-11.476 20.367-21.82 14.01-58.901 26.83-81.076 28.031v-.011c-8.707-1.002-17.625-1.702-22.862-7.81-.092-1.002 0-1.102 0-1.602 0-3.305-1.319-7.01 1.715-9.213l-.846-.692h.133c14.775-18.656 62.041-38.384 91.987-38.384m590.617.15-1.451.02c.12 0 .457 0 .789.093.172-.07.388-.113.662-.113m-.662.113c-.657.268-.656.931-.656 1.09 1.45 3.605 3.032 7.11 5.011 10.484l1.32 1v-.09s1.32-1 0-1.3c-1.846-3.305-3.43-6.81-4.88-10.276 0-.547-.395-.795-.795-.908m-393.426.389c-.396 0-.857.25-1.121.75 0 0-1.32 1.002 0 1.303 2.242 3.605 4.221 6.909 6.332 10.013l.394-.922 1.32 1.002v-.08s1.32-1.001 0-1.402c-1.978-3.004-3.958-6.309-6.2-9.914 0-.5-.33-.75-.725-.75m-456.393 1.521v1.403a47.5 47.5 0 0 1 10.026 7.61l-.397.401h1.32v-.002l.003-.002h.002c.027-.01.201-.038 1.314.004 0 0 1.32-1.001 0-1.402-3.166-3.104-6.596-5.809-10.422-8.012zM1178.44 51.85c-.264-.007-.51.1-.645.445-3.826 1.302-8.047 2.905-13.192 5.008 0 0-1.319 1.002 0 1.402l1.319 1-.658-1.201a193 193 0 0 1 12.927-4.906s1.319-1.003 1.319-1.303c0 0-.568-.432-1.07-.445m-646.088 5.834c-1.32 0-1.319 1-1.319 1.3 1.847 3.706 3.166 7.21 3.957 10.455l.66.17 1.319 1.002h.04v-.002a.1.1 0 0 1-.034-.01l-.002-.001-.002-.002v-.002h-.002v-.002c1.319 0 1.32-1.003 1.32-1.204-1.32-3.304-2.244-6.91-4.223-10.705 0-1.001-1.319-1-1.715-1zm-458.596.47c-13.06 0-24.048 2.503-31.858 7.11-17.94 10.565-18.943 29.36-17.544 46.375l.052.09c5.277 24.804 30.538 53.244 66.934 57.07v.031l.424-.041v-.03c27.214-3.604 51.433-21.219 60.443-43.77 7.52-18.887 2.11-36.684-14.695-48.76-14.815-10.646-40.987-18.075-63.756-18.075m.238 2.022c22.123 0 47.634 7.21 62 17.525 15.988 11.546 21.12 28.57 13.943 46.715-8.706 21.79-32.002 38.806-58.214 42.361-34.998-3.805-59.35-31.285-64.494-55.35v-.019c-1.32-16.453 0-34.619 16.542-44.623 7.256-4.306 17.81-6.61 30.223-6.61m224.047 1.383c-3.694 2.703-7.124 5.408-10.158 8.011 0 0 0 1 .094 1.4h1.318l-.791-.08h1.318c3.034-2.503 6.332-5.206 10.026-7.91 0 0 0-1.001.04-1.402 0 0-1.32 0-1.847-.02m853.426.507c-.255.014-.497.13-.662.444-3.43 1.502-8.046 3.405-12.795 5.107 0 0-1.32 1.002 0 1.403l1.318 1 .397-1c4.749-1.703 9.366-3.707 12.927-5.21 0 0 1.32-1 0-1.3 0 0-.624-.473-1.185-.444m-290.653 3.885c-.255.014-.497.13-.662.444 0 0-1.319 1.001 0 1.402 2.903 3.405 5.542 6.41 8.18 9.113h.395v-.002h.002v-.002c.018-.014.164-.066 1.318.004 0 0 1.32-1.002 0-1.402-2.638-2.804-5.277-5.709-8.047-9.114 0 0-.624-.473-1.186-.443M182.38 67.854c-.255.013-.497.13-.662.443 0 0-1.32 1.002 0 1.303 1.979 3.104 3.693 6.509 5.144 10.144l-.658-.72s0 1 1.318 1h.042v-.003h-.002v-.002c-.01-.006-.04-.02-.04-.054 1.32 0 1.319-1.003 1.319-1.203-1.451-3.706-3.297-7.21-5.276-10.465 0 0-.624-.473-1.185-.444m452.133.08c-.255.013-.497.13-.662.443-1.32 0-1.32 1.002 0 1.402a129 129 0 0 0 7.56 9.315h.486v-.002h.002v-.002h.002c.028-.012.202-.047 1.315.004 0 0 1.32-1.002 0-1.403-2.506-2.804-5.013-6.01-7.52-9.314 0 0-.622-.473-1.183-.444m6.898 11.16h-.834l.924.1zm383.375-10.946v1.4l1.08.583c4.09 1.802 8.708 3.104 13.826 4.105a.2.2 0 0 1 .04.012v.006c.182-.006 1.28-.08 1.28-1 .12-1.001.002-1.101-1.318-1.201-4.88-1.002-9.234-2.202-13.191-3.904zm101.338 2.915c-4.617 1.201-9.233 2.201-13.771 2.802-1.32 0-1.32 1.001-1.32 1.201v.008c.063.086.05.995 1.308.995l-.033.097c4.746-1 9.362-1.6 14.2-2.9 1.32 0 1.32-1.003 1.32-1.203 0-1.002-1.32-1-1.716-1zm-13.805 5.103-.01.002v.006zm-1031.399-3c-10.29 0-19.775 2.504-27.268 7.211-7.65 8.412-11.213 16.643-10.685 24.645 2.242 18.005 18.903 34.578 39.68 39.384 2.638 1.002 5.54 1.002 8.443 1.002 14.458 0 28.178-7.31 34.853-14.049l-.185.1c13.416-13.59 12.004-33.186-3.166-45.594-11.74-8.011-27.306-12.699-41.672-12.699m1103.695.05c-9.762 1.002-18.667 4.507-28.943 8.813-6.992 3.005-14.417 6.008-23.084 8.612-11.345 3.304-22.902 4.306-33.139 5.107-11.345 1.002-21.305 1.703-29.088 5.408-11.08 5.208-15.578 14.822-13.27 28.39l.409.51h.053c7.783 20.34 20.276 30.794 36.172 44.003 20.764 17.364 49.27 41.098 76.934 44.142h6.595c8.359 0 16.286-1.722 22.746-4.705v-1.574c-6.233 3.113-14.111 4.928-22.443 4.928h-6.2c-26.778-2.904-54.903-26.378-75.443-43.512-15.632-13.008-27.9-23.292-35.539-43.15-2.242-12.668 1.849-21.551 12.006-26.358l-.252-.48c7.256-3.405 16.913-4.206 27.994-5.108 10.422-1.001 22.188-1.702 33.875-5.207 8.839-2.603 16.49-5.81 23.364-8.613 10.025-4.206 18.665-7.81 27.992-8.512h3.562c4.592 0 8.194.793 11.084 1.998V75.12c-3.06-1.15-6.803-1.904-11.427-1.904-1.32 0-2.506.06-3.957 0zm-130.203.722c-1.319-.03-1.32 0-1.451 1.001-.026 1.002 0 1.002 1.32 1.102v-.1h14.576c1.32 0 1.32 0 1.32-1.002 0-1 0-1.001-1.32-1.001-4.617-.07-9.63 0-14.445 0m29.129.81c-1.32-.02-1.32 0-1.451 1.002-.04 1.001-.001 1.001 1.318 1.102l-.092-.09 1.319.05c3.825 0 7.782 1 11.476 1 0 0 1.319-.019 1.979-.019 1.319-.03 1.32 0 1.32-1.002 0-1.001 0-1-1.32-1-4.222.07-8.706 0-13.23-1.002zM80.92 74.938c13.732 0 28.625 4.606 39.851 12.136 14.327 11.667 15.54 30.123 2.903 42.961-6.332 6.41-19.22 13.248-32.715 13.248l-.053.22c-2.638 0-5.278 0-7.652-1.001-19.761-4.607-35.67-20.428-37.807-37.652 0-7.511 2.638-15.162 10.026-23.204 7.123-4.406 15.672-6.709 25.447-6.709m1031.394 1.238v.013q.035 0 .041-.002s-.024-.004-.035-.01zM277.541 77.21l.791.72c-3.166 3.205-5.672 6.51-7.65 9.514 0 1.002-.04 1.102 0 1.403v.08s1.318 0 1.318-1.002c1.847-3.004 4.487-6.11 7.389-9.315v-1.4zm260.195 1.861c-.556.042-.556.251-.556 1.002l-.131.272c0 4.105-1.32 6.809-2.112 9.312v1.301c0 1.001 0 1.103 1.319 1.203q.026.01.037.016l.002.002h.002v.006h-.002l-.002.002h-.002l-.004.002c.158-.005 1.289-.068 1.289-1v-1.301c1.32-2.403 1.978-5.408 2.242-9.814.04-1.002.001-1.002-1.318-1.002a8 8 0 0 0-.764 0zm339.842 5.569s.001 1.001-.13 1.402c3.51 3.046 6.783 5.459 10.27 7.41h1.997V92.05c-3.43-1.903-6.86-4.306-10.29-7.41zm10.14 8.812h-.642l1.188.3a47 47 0 0 1-.545-.3m97.557-6.91c-1.319.08-1.318 1.003-1.318 1.203h.004c.125.03 1.314 1 1.314 1l.66.031q.064 0 .079-.006v-.002h-.002l-.014-.002h13.92c1.32.09 1.452 0 1.584-1.002 0-1 0-1-1.32-1.2-3.694 0-7.915-.002-12.664-.022-1.32.08-1.451 0-2.243 0m-334.607.21v1.403c3.327 2.914 6.653 5.545 10.1 7.711h.453s1.202-.09 1.314-.012l.002.002.002.002v.002l.002.002v-1.398a74.5 74.5 0 0 1-10.025-7.71zm10.1 9.114h-.866l1.188.2zm-470.2-7.48c-1.319.06-1.318 1.001-1.318 1.101 1.32 3.505 1.32 7.209 1.451 10.844 0 1.001 0 1.002 1.319 1.002l-.04.14h.04c1.319-.02 1.32 0 1.32-1.001 0-3.806-.001-7.511-1.32-11.086 0-1.002-1.32-1-1.452-1m780.526.48c-4.617 1.002-9.233 2.002-13.758 3.104v.07c-1.32 0-1.32 1-1.32 1.201l1.32 1.002.447.041v-.111c4.485-1.002 9.102-2.102 13.574-3.104 1.32 0 1.32-1.003 1.32-1.203 0-1.001-1.32-1-1.583-1m40.816 3.365s-1.319 1 0 1.4c2.375 2.304 4.088 5.41 5.276 9.716l1.32 1h.014l-.012-.006v-.004c1.319 0 1.318-1.001 1.318-1.202l-.263-.41c-1.32-4.606-3.167-7.91-5.805-10.494zm-68.334 2.914c-5.145 1.002-9.63 1.701-13.666 2.102v.031c-1.319.08-1.32 1.002-1.32 1.102.053 1.001 0 1 1.32 1l-.238.23c.026 0 .093-.02.119-.02v-.038c4.221 0 8.706-1.102 14.049-2.203 1.319 0 1.32-1.003 1.32-1.204 0-1-1.32-1-1.584-1m-42.398 1.4c-1.32 0-1.451.001-1.715 1.003 0 1.001 0 1.1 1.32 1.201l-.29-.299c4.352 1.002 9.233 1.601 14.575 1.701h.053c1.32 0 1.32 0 1.32-1.002.04-1.001 0-1-1.32-1-5.145 0-9.762-1.002-13.943-1.603m-634.8.72c-.568.034-.618.272-.815 1.023v.002h-.007l-.002.002-.002.002-.002.002v.002l-.002.002c-.066.11.014 1.004.014 1.191v10.114c.027 1.001.001 1.002 1.32 1.002l.055-.002-.054-.008.263-.291c1.32-.07 1.319-1.002 1.319-1.102v-9.613h.006l.002-.002.006-.002.002-.002.002-.002c.088-.098-.018-1-.018-1.094 0-1.001 0-1-1.318-1.201a7 7 0 0 0-.768-.024zm258.179.463c-3.694 1.902-7.916 3.606-12.534 5.209 0 0-1.319 1 0 1.3 0 0 .001 1.002 1.32 1.002a.1.1 0 0 0 .05-.006h.002v-.008c-.01-.013-.051-.036-.051-.066 4.88-1.602 9.1-3.306 13.058-5.309 0 0 1.32-1 0-1.4 0 0-1.318-1.002-1.845 0zm146.533 2.455c0 1.001-.119 1.1 0 1.3l1.027.692c4.485 1.802 9.235 3.103 13.957 3.904a.2.2 0 0 1 .041.008l-.002.002c.206-.008 1.281-.094 1.281-1 0-1.001 0-1.101-1.32-1.201-4.485-1.001-9.1-2.003-13.27-3.705 0 0-1.45-.04-1.714 0m32.517 4.496c-1.319.01-1.98.048-3.035.058-1.319.02-1.318 0-1.318 1.002s0 1.002 1.318 1.002l.264.11c1.32-.01 2.112-.05 3.035-.07 2.11-.05 4.221 0 6.332 0 1.847 0 3.43.06 4.881 0 1.32.05 1.451 0 1.451-1 .053-1.002 0-1.002-1.32-1.102-1.583-.08-3.298 0-5.145 0-2.242 0-4.352.06-6.463 0m-205.13 1.941-.264.06h.01zm-.254.06c-4.137.978-8.279 1.863-12.674 2.844h-1.32c-1.32 0-1.319 1.003-1.319 1.303l1.319 1.002a.2.2 0 0 0 .046-.004l.002-.002h.002l.002-.002v-.004h-.002l-.002-.002c-.009-.007-.034-.017-.044-.023l-.002-.002-.002-.002h1.32c4.485-1.002 8.837-1.903 13.058-2.905 1.32 0 1.32-1 1.32-1.2 0-.994-1.297-1.003-1.704-1.003m228.746 1.192v1.402l1.32.631c1.32 1.002 2.638 1.402 3.957 2.203a51 51 0 0 0 5.012 2.805c1.319 0 2.111 1.001 3.299 1.201v.07s1.318 0 1.318-1.001c0 0-.052-1.1-1.318-1.301-1.32 0-2.112-1.002-3.036-1.102-1.714-1.001-3.166-1.702-4.617-2.603-1.319-1.002-2.637-1.604-4.088-2.305zm-535.41 2.484c-1.32-.03-1.32.001-1.452 1.002-.04 1.002 0 1.502 0 2.303 0 2.404-1.32 5.307-1.584 8.512-.092 1.001.001 1.101 1.32 1.101a.1.1 0 0 1 .04.03v.004h.002v.004h-.002v.004h-.002l-.002.002h-.002l-.002.002h-.002c-.012.004-.03.006-.03.006l.131.148s1.32.001 1.32-1c1.32-3.405 1.319-6.21 1.583-8.713.04-1.001.118-1.501 0-2.302.04-1.002 0-1.002-1.319-1.102zm278.646 2.344.397.059c-2.77 1.001-5.54 1.202-8.311 1.803l-5.672 1.203c-1.319 0-1.32 1-1.32 1.2l1.32 1a.1.1 0 0 0 .031-.003h.002v-.002h.002v-.004l-.002-.002v-.002c-.006-.01-.024-.024-.03-.037l-.003-.002v-.006l5.54-1.203c2.77-1.002 5.673-1.2 8.312-1.801 1.319 0 1.318-1.003 1.318-1.203 0-1.002-1.32-1-1.584-1m549.897.17c-1.32.06-1.319 1.002-1.319 1.102v2.002c0 2.203 0 4.405 1.319 6.709.118 1.001 0 1.503 0 2.304v.006c.075.086.049.994 1.306.994 1.32-.04 1.32-1.001 1.32-1.101-.092-1.002 0-1.502 0-2.303 0-2.203 0-4.406-1.32-6.61v-2.001c-.04-1.002-1.32-1.002-1.45-1.002zm-752.49 1.268c-.256.013-.498.13-.663.443v1.402c1.32 1.102 1.846 2.304 2.77 3.705 0 1.002-.001 1.103 1.318 1.604 1.451 1.202 3.035 2.303 4.486 3.404l1.846-1.402c-1.319-1.102-2.901-2.203-4.22-3.305v.1s0-1-1.319-1.4c-1.32-1.402-1.716-2.906-3.035-4.108 0 0-.623-.473-1.184-.443m481.663 1.355s-1.318 0-1.845.06c0 0 0 1.002.039 1.403l1.318 1 .094.56v.07c4.353 1.002 8.837 1.303 13.058 2.104a.2.2 0 0 1 .041.006v.002c.21-.009 1.28-.093 1.28-.998.118-1.001-.001-1.103-1.32-1.203-4.222-1.001-8.443-1.4-12.665-2.002zm-306.574 3.445c-5.145 1.202-9.762 2.303-13.904 3.405-1.32 0-1.318 1.002-1.318 1.303l1.318 1v-.04c4.221-1.101 8.708-2.103 13.879-3.304 0 0 1.318-1.001 1.318-1.201 0-1.002-1.32-1.002-1.584-1.002zm722.19 1.245c-12.977.507-26.136 5.793-37.356 14.959h-.027v2.101c-.053 1.002-.092 1.003 0 1.303h-.053c0 5.307 3.166 11.506 8.97 16.133 5.278 4.206 11.609 6.51 18.007 6.51l-1.346.51c3.034 0 5.937-1.001 8.707-1.602 10.158-3.906 16.636-15.723 17.084-24.936 0-7.01-2.639-12.287-8.443-14.88v-.02q-2.762-.187-5.543-.078m-388.334 1.19c-1.32 0-1.452-.002-1.584 1 0 1 0 1.102 1.32 1.202l.394.03c4.618 1 9.236 2.003 13.827 3.105q.044.023.05.037v.002l.002.002v.006l-.002.002v.002l-.002.002-.002.002-.002.002a.1.1 0 0 1-.039.012c.034 0 1.313-.012 1.313-1 0-1.002 0-1.103-1.318-1.203-4.618-1.202-9.367-2.202-13.958-3.203zm387.277.786a51 51 0 0 1 5.201.014c6.332 3.004 6.992 9.414 6.729 12.959 0 9.714-7.387 20.138-15.606 23.232-2.506 1.002-5.013 1.403-7.52 1.403-5.672 0-11.344-2.105-16.146-5.91-5.277-4.206-8.443-9.814-8.18-14.57l.45-.03v-.008c.069-.1-.014-1.02-.014-1.494.053-1.002.092-1.102 0-1.502 10.619-8.587 22.905-13.503 35.072-14.094zm-748.994 3.71.224.028c-5.276 1.302-9.628 2.405-13.81 3.407-1.32 0-1.32 1-1.32 1.2l1.32 1.003q.034-.001.039-.004v-.002h-.002c-.007-.004-.026-.01-.035-.018v-.002l-.002-.002v-.004c4.221-1.001 8.573-2.102 13.85-3.404 0 0 1.32-1 1.32-1.201 0-1.002-1.32-1.002-1.584-1.002zm389.353 2.222c-1.319 0-1.45.07-1.714 1.002 0 1.001.091 1.1 1.318 1.3l.435-.07a592 592 0 0 1 13.55 4.006v.07s1.318.001 1.318-1-.04-1.102-1.319-1.302c-4.88-1.502-9.234-2.804-13.588-4.006m-517.496 1.703v1.402s1.319 1 2.242 1v.07c3.826 1.102 7.782 2.004 11.608 2.805a.2.2 0 0 1 .039.024h.002v.008h-.002v.002h-.002l-.002.002-.004.002c.158-.004 1.29-.066 1.29-.998 0-.262 0-.463-.024-.618-3.818-.998-7.637-1.7-11.323-2.699-1.319 0-1.319-1-1.978-1zm15.147 3.7.023.005-.025-.012zm-.002-.007c-.068-.431-.326-.506-1.295-.58zm85.375-1.201.092.031a285 285 0 0 1-14.05 2.504c-1.318 0-1.318 1.001-1.318 1.201l1.319 1.002q.03 0 .033-.002v-.002a.1.1 0 0 1-.027-.015l-.002-.002-.002-.002v-.004h-.002v-.004c4.617-1.001 9.234-1.503 14.22-2.504 1.32 0 1.32-1 1.32-1.201 0-1.001-1.32-1.002-1.583-1.002m-199.84.031c-1.32 0-1.452 0-1.584 1.002v1c-1.32 3.305-1.978 6.81-2.77 10.205-.132 1.002 0 1.101 1.319 1.201l.027.012h.002v.004h-.002v.002c.141-.003 1.293-.057 1.293-.998 1.32-3.405 1.846-6.81 2.77-10.154v-1.002c0-1.002 0-1.001-1.319-1.201zm835.771 2.553c-1.319.06-1.318 1.001-1.318 1.102l.13-.03c1.32 4.707 1.32 8.012 2.112 10.996l1.319 1h.017v-.004c0-.002-.015-.006-.015-.006 1.319 0 1.32-1 1.32-1.2-1.32-3.005-1.32-6.21-2.111-10.856-.093-1.002-1.32-1.002-1.452-1.002zm-708.029.969c-.594.034-.668.274-.668 1.025 0 1.002.001 1.001 1.32 1.201 4.75 1.002 9.763 1 14.604 1.301h.092c1.319 0 1.318.001 1.318-1 .053-1.001 0-1.102-1.318-1.102l-.239-.101c-4.749 0-9.63-1-14.326-1.3a7 7 0 0 0-.783-.024m44.04.584-.212.1c-4.749 0-9.629 1.001-14.351 1.001-1.32.03-1.32 0-1.32 1.002s0 1 1.32 1h.052c4.75 0 9.762.001 14.643-1 1.32-.05 1.318-1.001 1.318-1.101-.092-1.002-1.319-1.002-1.45-1.002m474.253.54c-1.32 0-1.45.061-1.715 1.003 0 .344.001.58.055.752l-.582-.252.611.332c.092.193.288.29.694.375l.543.295c3.825 1.301 7.65 2.703 11.08 4.205h2.638v-1.403c-3.561-1.602-7.519-3.003-11.476-4.304zm23.1 10.805v1.403c3.561 2.203 6.99 4.606 10.552 7.31l-.527.2h2.638v-1.4c-3.561-2.805-7.124-5.31-10.818-7.513zM.873 153.307v6.41c1.32 1.902 1.45 3.605 2.11 5.107h.005c.15.03 1.315 1.002 1.315 1.002l-.53-.672v-.02c1.32 0 1.32-1.002 1.32-1.302-1.318-2.904-2.769-6.71-4.22-10.525m179.709 1.107c-.563.04-.587.255-.686 1.006v4.508c0 2.503 0 4.605 1.319 6.408l1.32 1.002.078-.381h.041v-.002c-.003-.001-.024-.004-.035-.01l-.002-.002v-.002h-.002v-.002l-.002-.002c1.32 0 1.32-1.003 1.32-1.203 0-1.703-1.32-3.605-1.32-5.908v-4.305h.053c.04-1.001 0-1.001-1.319-1.102a8 8 0 0 0-.765-.006zm849.28 2.193c-.264-.007-.51.102-.645.446 0 0-1.32 1.002 0 1.302 1.715 3.005 4.09 6.208 7.256 9.713h1.318l-1.053-.2v-.003s0-.002.01-.002c.038-.01.239-.037 1.31.004 0 0 1.32-1 0-1.4-3.033-3.405-5.407-6.51-7.122-9.414 0 0-.568-.432-1.07-.446zm-285.057 1.127c-6.992 0-13.641 1.502-20.092 3.004-1.583 0-3.034 1.002-4.617 1.002s-3.166 1-4.881 1c-5.673 1.002-11.608 2.003-16.186 5.108-10.421 7.01-20.988 15.521-16.265 28.66 2.242 6.509 5.804 12.64 9.234 18.597l-.144-.091c3.693 6.609 7.65 13.359 9.892 20.609 2.243 7.21 10.555 11.277 23.272 11.277 5.804 0 12.134-1.001 17.45-2.504 4.486-1.301 8.445-3.506 12.27-5.609 1.847-1.001 3.693-2.103 5.54-3.004 1.846-1.001 3.695-1.7 5.41-2.502 5.672-2.603 11.607-5.308 16.449-9.113 6.332-5.007 11.08-12.528 12.664-20.29 2.374-10.844-1.452-22.07-10.422-30.782-8.97-8.813-21.912-14.181-36.541-15.223v-.049c-1.32-.05-1.978-.09-3.033-.09m-.264 1.983c1.32 0 1.846.04 2.77.08v.039c13.811 1.001 26.093 6.11 34.628 14.451 8.443 8.312 12.004 18.967 9.893 29.262-1.583 7.41-6.068 14.55-12.004 19.207-4.485 3.505-10.29 6.209-15.91 8.812-1.847 1.002-3.693 1.703-5.408 2.504-1.979 1.002-3.958 2.002-5.805 3.104-3.694 2.103-7.386 4.206-11.607 5.408-5.013 1.402-11.082 2.303-16.543 2.303-6.596 0-18.126-1.301-20.725-9.713-2.243-7.41-6.33-14.301-10.156-20.98-3.298-5.909-6.861-11.948-9.104-18.327-3.825-10.835 3.431-18.465 15.489-26.646l.5.01c4.089-2.704 9.63-3.706 15-4.608 1.583 0 3.428-1 5.011-1s3.034-1.002 4.617-1.002c6.333-1.402 12.798-2.904 19.354-2.904m132.947 3.412c-.255.013-.497.13-.662.443 0 0-1.319 1.002 0 1.403 2.375 2.203 4.75 4.505 6.729 6.408l-.791-.1c1.319 1.002 1.582 1.502 2.242 2.303h1.32v-.002c.018-.013.164-.06 1.319.002v-1.402c-1.32-1.002-1.585-1.503-2.245-2.204-1.978-1.902-4.352-4.205-6.726-6.408 0 0-.625-.473-1.186-.443M7.891 173.416c-1.32 0-1.32 1-1.32 1.3 1.714 4.307 3.035 7.511 4.222 10.546l.002.002c.134.015 1.316 1 1.316 1l.264-.01h.041v-.002h-.002v-.002c-.006-.003-.022-.01-.031-.018l-.002-.002-.004-.006-.002-.01c1.32 0 1.32-1.003 1.32-1.203-1.319-3.004-2.376-6.308-4.222-10.594 0-1.001-1.319-1.002-1.582-1.002zm182.533.291.097.041a.4.4 0 0 0-.093-.041zm.103.045c.145.082.406.264.66.447l.372-.002zm.66.447c-.43.003-1.127.01-1.476.037 0 0 0 1.002.053 1.403l1.45 1.101 1.321 1.002v.06c3.43 1.002 7.123 1.301 11.08 1.702a.2.2 0 0 1 .04.006l.001.002c.213-.01 1.278-.096 1.278-.998.079-1.002 0-1.002-1.319-1.102-3.693 0-7.256-1.002-10.422-1.703l-1.318-1.002s-.337-.255-.687-.508zm854.561.205c-.255.014-.497.13-.662.444 0 0-1.32 1.001 0 1.402 1.32 1.001 1.847 1.803 2.902 2.805l-.79.1a251 251 0 0 1 5.935 5.907h1.32v-.004c.027-.014.202-.055 1.315.004 0 0 1.319-1.001 0-1.402-1.98-2.003-4.09-4.005-6.069-6.008-1.319-1.001-1.846-1.803-2.77-2.804 0 0-.624-.473-1.185-.444zm-769.156 2.426c-1.32.02-1.319 0-1.319 1.002.053 1.001 0 1.002 1.319 1.002h15.183s1.319 0 1.319-1.002c0-1.001 0-1.002-1.319-1.002h-1.318c-4.353 0-8.84.05-13.865 0m28.1.059c-.557.041-.555.253-.555 1.004-.053 1.001-.001 1.002 1.318 1.002l.172.068c4.353 0 8.969 0 14.232 1.002.02.015.045.023.051.027h.002v.002c1.252 0 1.268-.016 1.268-1 .092-1.001-.001-1.001-1.32-1.101-5.277 0-10.025-1.002-14.405-1.002a8 8 0 0 0-.764-.002m-57.174 1.033c-1.32.06-1.32 1.001-1.32 1.101 0 1.002 0 1.002 1.32 1.002l.091-.1h.04c2.902-.1 5.673 0 8.576 0h5.935c1.32-.04 1.319-1.001 1.319-1.001-.04-1.002 0-1.002-1.319-1.002h-6.068zm-28.852.371c-1.32-.02-1.318 0-1.318 1.002 0 1.001-.001 1 1.318 1l-.197.031c2.506.07 4.882.1 7.652.1 2.243 0 4.484-.02 6.99-.09 1.32 0 1.32 0 1.32-1.002 0-1.001 0-1.002-1.32-1.002-5.408.08-10.158.081-14.445-.04m115.81 1.092c-1.319 0-1.45-.001-1.45 1s0 1.001 1.32 1.101l.064-.029c4.617 1.001 9.367 1.102 14.182 1.703l.119.01v.03s1.318 0 1.318-1c0-1.002.001-1.002-1.318-1.102v-.012c-4.749-1.001-9.499-1.2-14.234-1.701zm142.848.945c-.593.04-.668.257-.668 1.008-.092 1.001.001 1.001 1.32 1.101l.633.26c4.222 0 8.838 1.302 13.864 2.604q.04.007.05.013l.002.002v.008h-.002v.002h-.002c-.013.008-.048.014-.048.014s1.32.001 1.32-1-.001-1.102-1.32-1.303c-5.145-1.301-9.894-2.202-14.366-2.703a8 8 0 0 0-.783-.006m-13.304.147c-4.09 0-8.575 1-14.538 1.502-1.319 0-1.32 1-1.32 1.101h.006c.125.03 1.315 1 1.315 1l.394-.09.041-.002v-.002h-.002l-.039-.006c5.804-1.001 10.29-1.202 14.273-1.402 1.32-.03 1.32-1.002 1.32-1.102-.092-1.001-1.319-1-1.45-1zm431.789.218s0 1.002-.053 1.403c3.593 2.922 6.938 5.277 10.517 7.431h1.805v-1.402c-3.43-2.103-6.992-4.506-10.422-7.41 0 0-1.32-.001-1.847-.022m10.464 8.834h-.834l1.135.18zm-543.857-6.718c-.569.035-.619.268-.816 1.02-.08 1-.001 1 1.318 1.1h.21c5.278 1.002 10.028 1.102 14.407 1.503 0 0 1.319 0 1.319-1 .04-1.002 0-1.102-1.319-1.102-4.353 0-8.971-1.001-14.353-1.502a7 7 0 0 0-.766-.02m73.096.91c-3.826 1.001-8.97 1.2-14.313 1.601-1.319.05-1.32 1.002-1.32 1.102.092 1.001 0 1.002 1.32 1.002l-.039.1c5.54 0 10.685-1.101 14.484-1.602 1.32-.08 1.319-1.001 1.319-1.201-.092-1.002-1.32-1.002-1.451-1.002m-43.98 1.931c-.563.042-.587.251-.686 1.002-.066 1.002-.001 1.002 1.318 1.102l-.133-.1h8.444c1.978.09 3.957 0 5.804 0 1.32 0 1.319 0 1.319-1.002 0-1.001 0-1.002-1.319-1.002-1.978 0-3.825-.03-5.672 0h-8.312a8 8 0 0 0-.764 0m-112.698 2.164c-38.995 2.204-93.068 9.914-117.248 24.434-10.817 6.51-14.035 14.591-10.156 25.486l.408 1.012c8.443 18.817 31.593 34.588 53.9 49.84l8.313 5.709c2.506 1.702 5.012 3.504 7.65 5.307 21.173 14.9 43.136 30.343 69.889 33.667h5.54c1.98 0 3.958-.08 5.936 0 2.903 0 6.201 0 8.707-.05v-.03c14.67-2.303 30.803-11.416 40.077-22.591 17.452-20.96 35.208-57.061 37.992-77.27 1.583-11.837-1.32-20.278-8.97-26.607-11.742-9.514-40.815-15.832-64.349-17.905-5.672-1.001-12.929-1.002-18.232-1.002zm227.518.2s-.093 1.102 0 1.302l-.66.202c3.561 1.402 6.99 2.803 9.761 4.205 1.32 0 1.715 1.002 2.639 1.302h2.638v-1.402c-1.319 0-1.847-1.002-2.638-1.303-2.77-1.402-6.464-2.904-10.026-4.306 0 0-1.45-.04-1.714 0m-226.844 2.795h19.219c7.255 0 13.628 0 17.955 1.001 23.032 2.003 51.394 8.11 62.66 17.284 4.617 3.705 10.421 10.284 8.31 25.025-2.77 19.598-20.632 56.01-37.623 76.399-8.838 10.705-24.18 19.406-38.217 21.68-2.638 0-5.934-.051-8.968.089-1.979.08-3.958 0-5.805 0s-3.563-.09-5.014 0c-26-3.205-47.674-18.456-68.57-33.156-2.506-1.803-5.144-3.604-7.65-5.307-2.77-1.903-5.673-3.806-8.444-5.709-22.03-15.071-44.852-30.662-53.084-48.918-3.561-10.014 0-17.405 9.235-23.344 23.692-14.24 77.224-21.83 115.85-24.023zm782.81 1.9c-.255.013-.497.13-.662.443-1.319 0-1.319 1.002 0 1.403 2.11 2.804 3.694 5.406 4.881 7.91 0 1.001 0 1.301 1.318 1.902l1.319 1.002a.1.1 0 0 0 .037-.004v-.01c-.01-.007-.03-.017-.037-.023v-.004c1.319 0 1.32-1.001 1.32-1.201 0-1.002 0-1.403-1.32-2.104l-.527-.66c-1.32-2.604-2.77-5.307-5.145-8.211 0 0-.622-.473-1.184-.443m-145.982.713s-.08 1.102 0 1.303l1.518.86c4.089 1.603 8.573 3.104 13.546 4.306a.2.2 0 0 1 .047.017l.004.004h.002v.006h-.002v.002h-.002l-.002.002h-.002c-.015.006-.045.01-.045.01s1.32 0 1.32-1.002c0-1.001-.12-1.1-1.32-1.3-4.88-1.202-9.234-2.605-13.218-4.208-1.32 0-1.45-.04-1.846 0m-900.57 1.322c-1.32 0-1.319 1.001-1.319 1.201 1.32 4.006 1.846 7.511 2.373 10.766.093 1.001.001 1.002 1.32 1.002l.172.129h.092c1.32-.06 1.319-1.002 1.319-1.102 0-3.405-1.32-7.008-2.375-10.994 0-1.001-1.319-1.002-1.582-1.002m514.396 5.348s0 1.002.092 1.402c3.825 2.403 7.256 5.006 10.422 7.61l-.91.2h2.638s0-1.001.026-1.402c-3.166-2.704-6.727-5.307-10.42-7.81zm415.815.62c-1.32 0-1.45 0-1.582 1l.13-.118c0 1.001.001 1.1 1.32 1.2 3.43 1.002 7.256 1.104 11.214 1.604h3.166l.013.008.002.002v.002h.002v.004h-.002l-.002.002h-.004l-.004.002c.034 0 1.313-.013 1.313-1.002 0-1.001 0-1.001-1.319-1.101h-3.166c-3.957 0-7.784-1-11.082-1.602zm-654.518.12c-29.72 0-69.23 7.21-87.13 21.07-6.992 5.408-10.687 12.188-11.347 21.4h.028c4.485 12.608 12.4 22.943 27.69 35.74v-.019c16.04 13.38 47.449 35.811 78.529 35.811 15.223 0 28.573-5.408 39.668-15.982 14.141-13.51 28.863-42.392 27.359-60.788-1.847-21.84-23.904-34.708-63.717-37.232zm.053 1.652h10.816c38.929 2.504 59.534 14.382 61.262 35.381 1.45 17.955-12.926 46.176-26.725 59.414-10.553 10.104-23.231 15.22-37.637 15.22-30.037 0-60.853-22.02-76.525-35.15-14.96-12.477-22.822-22.56-27.096-34.757 1.32-8.612 4.091-14.962 10.555-19.96l.04.33c15.407-11.866 51.315-20.478 85.31-20.478m683.21 2.344c-1.319 0-1.45.08-1.714 1.002 0 1.001-.001 1.101 1.318 1.201l-.488.201c4.09 1.102 8.047 2.503 12.928 4.606 0 0 1.32 0 1.32-1.002v-1.3c-5.013-2.204-9.102-3.606-13.363-4.708m90.614 8.703c-2.11 2.704-5.54 4.906-10.422 6.508 0 0-1.319 1.002 0 1.303 0 0 0 1.002 1.32 1.002v-.08c5.409-1.803 9.233-4.307 11.608-7.31v-1.403l-.66-.02zm-777.07 1.121c-31.898 0-64.442 11.637-64.983 33.848h.053c6.86 22.482 40.393 49.61 71.525 49.61v.27h.041c13.06 0 24.088-4.507 33.084-13.33 8.311-8.11 14.234-20.047 15.606-31.122 1.583-13.269-3.562-24.114-14.366-30.563-9.234-5.508-24.233-8.713-40.96-8.713m710.505 1.051v1.402c4.881 2.103 8.97 3.605 13.217 4.907v.05s1.32 0 1.32-1.001c0-.248 0-.44-.022-.592-4.044-1.29-7.97-2.685-12.8-4.766zm14.514 4.766.13.04-.136-.07c0 .01 0 .02.01.03zm-.01-.03c-.074-.438-.339-.532-1.29-.68zm-463.498-3.796c-.255.013-.497.13-.662.443 0 0-1.32 1.002 0 1.402 2.657 3.073 4.828 6.146 6.514 9.131l1.006.762v-.08c1.319 0 1.318-1 1.318-1.301-1.715-3.305-4.09-6.61-6.992-9.914 0 0-.623-.473-1.184-.444m5.852 10.976-.315-.238.528.619zm-267.315-10.965-.052.022c16.146 0 30.446 3.003 39.324 8.21 22.175 13.24 13.812 43.731-1.582 58.913-8.443 8.312-18.905 12.558-31.094 12.558-29.945 0-62.159-26.206-68.94-47.937 1.32-20.85 31.805-31.766 62.344-31.766m-269.4.14.039.081h-.04c-1.318 0-1.318 0-1.318 1.002-.04 3.805 0 7.51-1.32 10.846 0 1.001.001 1 1.32 1.2h.014l.002.003h.002v.002h-.004l-.014.006s1.319 0 1.319-1.002c1.319-3.505 1.32-7.21 1.32-11.135 0-1.001-.001-1.002-1.32-1.002zm431.078 6.009c-1.32-.03-1.32 0-1.451 1.002-.053 1.001 0 1.002 1.32 1.002 0 .03 1.318.06 1.582.09 3.562 0 7.784 1 12.533 1.6a.1.1 0 0 1 .04.009c.209-.01 1.279-.094 1.279-.998 0-1.002 0-1.101-1.319-1.201l.528.18c-4.881-1.002-9.103-1.304-12.797-1.604 0-.03-1.32-.07-1.715-.08m576.326.345c-.594.04-.668.257-.668 1.008-.092 1.002 0 1.102 1.32 1.102h14.774c1.32-.06 1.32-1.002 1.32-1.102-.092-1.001-1.319-1.002-1.45-1.002-4.618 0-9.63 0-14.222.06l-.29-.06a8 8 0 0 0-.784-.006m-589.873.807-1.293.4c-4.617 1.302-8.84 3.304-12.797 6.008 0 0 .001 1.002-.025 1.403h1.318l.002-.002c.018-.013.164-.06 1.319.002 3.693-2.504 7.65-4.407 11.87-5.508 1.32 0 1.321-1 1.321-1.301 0-1.001-1.32-1.002-1.715-1.002m41.566 2.854c-1.319 0-1.452 0-1.584 1.001 0 1.002.001 1.102 1.32 1.202l.264-.02c2.375 0 4.749 1.002 7.124 1.402 2.242 0 4.617 1.002 6.992 1.403q.03.007.039.012h.002v.004h-.004l-.002.002c.175-.006 1.283-.077 1.283-1 0-1.002 0-1.101-1.318-1.202-2.375 0-4.618-1.001-6.993-1.402-2.374 0-4.748-1.002-7.123-1.402m14.15 5.005-.019.002zm14.622.582c-1.32 0-1.452.001-1.584 1.002l.08-.1c0 1.002 0 1.102 1.318 1.202 5.409 1.001 10.159 1.502 14.407 1.902 0 0 1.318 0 1.318-1.002.092-1.001 0-1.101-1.318-1.101-4.222 0-8.839-1.001-14.221-1.903m43.492 1.303c-3.166 1.002-7.65 1.201-13.058 1.201h-1.32l-.528.301c-1.32 0-1.318 0-1.318 1.002 0 1.001-.001 1 1.318 1h1.318c5.805 0 10.422.001 13.852-1.3 1.319 0 1.32-1.002 1.32-1.202 0-1.001-1.32-1.002-1.584-1.002m-263.068 3.895c-8.575 0-16.78 2.804-21.186 7.21-3.562 3.606-4.486 7.91-2.771 12.557h.066l-.053.803h.08c1.452 1.502 2.243 2.903 3.167 4.205 1.319 1.803 2.373 3.505 4.484 5.108 5.277 4.005 11.213 6.109 17.228 6.109 12.005 0 20.949-8.112 22.584-16.033 1.847-8.713-4.484-15.803-17.267-18.957-1.979 0-4.221-1.002-6.332-1.002m125.65.56c-1.319 1.002-1.319 1.603-1.978 2.405-1.715 2.303-3.43 4.706-5.278 7.31 0 0-.04 1.1 0 1.3l.793.903s1.319 0 1.319-1.002c1.715-2.503 3.43-5.006 5.144-7.209 0-1.001 1.32-1.603 1.848-2.304v-1.403zm-398.455.422c-1.32 0-1.45.01-1.715 1.002-1.319 1.602-1.978 3.003-3.033 4.205-1.32 1.502-3.034 2.804-5.144 4.106 0 0-1.32 1.001 0 1.402h1.318v-.002h.002v-.002c.018-.014.164-.066 1.318.004 2.243-1.402 4.221-2.905 5.672-4.607 1.32-1.302 2.242-2.803 3.297-4.606 0-1.001 0-1.102-1.318-1.303zm272.83 1.701h5.674c11.213 2.804 16.939 9.013 15.303 16.684-1.451 7.01-9.368 14.31-19.948 14.31-5.276 0-10.553-1.902-15.355-5.507-1.847-1.402-2.77-2.803-3.957-4.606-1.32-1.302-1.847-2.704-3.166-4.307-1.451-4.005 0-7.61 2.375-10.625l-.014.461c3.826-3.905 11.345-6.41 19.088-6.41m114.77 17.096-.793.84h-1.715c-1.847 3.104-3.825 6.41-5.936 10.144 0 1.002.052 1.103 1.319 1.303v.09s1.32 0 1.32-1.002c1.979-3.705 3.958-7.01 5.805-10.074zm-321.574 3.353c-14.722 0-26.86 2.504-35.051 7.41-18.851 11.106-20.539 33.58-19.932 51.895h.078c6.332 10.134 18.179 15.181 30.764 20.549 6.991 3.004 14.273 6.108 20.539 10.094 11.213 7.21 20.591 19.898 25.723 29.361 2.77 5.207 4.75 11.176 6.597 16.914 2.507 7.811 5.145 15.863 10.026 22.412 3.825 5.208 8.574 7.81 14.537 7.81 3.957 0 8.574-1.102 13.943-3.505 9.234-4.006 17.175-9.313 25.684-14.9l.277-.32c8.31-5.509 17.03-11.256 27.398-16.083 9.235-4.306 18.232-7.111 26.952-9.715 7.387-2.303 15.183-4.707 22.953-8.011 3.298-1.402 6.2-3.604 9.63-6.207 1.32-1.002 1.98-1.504 3.167-2.305h.039c1.583-10.785-6.464-17.313-15.764-24.834-1.32-1.001-2.638-2.104-3.957-3.205-9.63-8.011-21.04-16.713-31.594-23.953-29.39-20.399-67.015-39.667-93.517-47.998-7.915-2.504-22.676-5.408-38.492-5.408m.382 1.323c15.395 0 29.813 2.803 37.49 5.207 26.265 8.211 63.531 27.359 92.764 47.607 10.422 7.21 21.899 15.913 31.45 23.834 1.319 1.102 2.637 2.204 3.956 3.205 9.103 7.41 16.359 13.217 15.092 22.89-1.319 1.002-1.979 1.403-2.902 2.104-3.166 2.404-6.068 4.607-9.102 5.809-7.65 3.305-15.236 5.607-22.636 7.91-8.839 2.704-17.862 5.508-27.32 9.914-10.554 4.907-19.3 10.705-27.81 16.293-8.31 5.508-16.264 10.746-25.208 14.682-5.013 2.203-9.103 3.305-12.664 3.305l.066.06c-5.013 0-8.84-2.104-12.27-6.81-4.617-6.31-7.254-14.23-9.628-21.891-1.847-5.808-3.827-11.806-6.729-17.174-2.506-4.707-11.871-20.83-26.422-30.152-6.464-4.206-13.812-7.311-20.935-10.295-12.137-5.208-23.641-10.064-29.551-19.457 0-17.835 1.32-39.527 18.918-50.032 7.783-4.606 19.3-7.01 33.441-7.01m1002.358 5.287c-.563.038-.589.26-.688 1.012-.053 1.001 0 1.002 1.32 1.002l.659.189c5.145 0 9.894 1.001 14.115 1.502a.2.2 0 0 1 .041.006v.004c.201-.008 1.283-.091 1.283-1 0-1.001 0-1.103-1.32-1.203-4.485-1.002-9.234-1.402-14.643-1.502a7 7 0 0 0-.763-.01zm-604.27.037c-6.172-.004-12.583.55-18.945 1.957-32.478 7.21-45.182 40.657-54.363 65.041-1.32 2.403-1.848 4.807-2.772 7.01-12.4 31.534-29.035 51.834-49.535 75.136-9.498 10.766-17.267 21.61-24.813 32.104-11.476 15.932-22.267 30.965-37.939 44.904-34.417 22.412-77.897 31.034-119.49 23.614-14.762-2.604-26.991-7.711-38.758-12.588-12.928-5.408-25.142-10.426-39.996-12.258-37.227-4.506-52.344 6.51-68.346 18.297-3.298 2.403-6.73 4.907-10.29 7.31-3.958 2.604-8.048 5.208-12.401 7.711v2.502c5.013-2.704 9.63-5.707 14.181-8.611 3.694-2.404 7.124-4.907 10.422-7.31 16.213-11.897 30.169-22.152 66.076-17.766 14.445 1.802 26.49 6.71 39.166 12.017 12.005 5.007 24.314 10.125 39.485 12.8 42.358 7.51 86.814-1.204 121.799-24.097 15.843-14.13 26.805-29.26 38.347-45.302 7.52-10.445 15.276-21.26 24.668-31.955 20.593-23.423 37.36-43.903 49.866-75.678 1.319-2.203 1.846-4.506 2.77-7.01 8.97-23.944 21.488-56.76 52.62-63.69 24.484-5.407 50.09 2.405 58.533 5.008 18.825 5.809 55.576 21.471 74.717 32.957 9.762 5.809 14.59 9.513 17.215 18.225 2.506 8.011 2.638 17.254 0 29.06-3.826 22.262-18.64 32.487-52.727 36.493h-1.45c-37.69 4.406-67.503 7.91-76.684 38.683-2.507 8.613-1.714 17.557-1.319 26.159v2.603c1.583 15.923 3.166 32.365 0 46.645-1.319 4.606-2.639 8.311-4.75 12.748-6.991 14.36-18.903 24.225-31.54 34.66a364 364 0 0 0-6.348 5.246h3.257a284 284 0 0 1 5.043-4.186c12.137-10.134 24.814-20.609 32.096-35.33 2.243-4.506 3.562-8.31 4.881-13.017 3.826-14.55 2.242-31.145 1.318-47.207v-2.604c-1.319-8.412-1.715-17.195 1.319-25.556 8.706-29.452 37.78-32.845 74.533-37.131h1.451c34.998-4.106 50.868-15.163 54.865-38.205 2.111-12.027 1.978-21.51-1.32-29.791-2.902-9.714-8.838-13.76-18.125-19.329-19.326-11.576-56.408-27.368-75.404-33.207-6.431-2.027-22.797-7.051-41.313-7.062m588.426.475c-3.298 0-7.388 1-12.137 1.3-1.319 0-1.318 1.003-1.318 1.203.092 1.002 0 1 1.318 1l.397-.09h.027s-.016-.002-.023-.005v-.004c4.485-1.002 8.573-1.103 11.87-1.303 1.32-.04 1.584 0 2.376 0 1.32-.05 1.318-1.002 1.318-1.102-.066-1.001-1.317-1-1.449-1-1.32.06-1.583 0-2.375 0zm-26.277 3.464c-4.222 1.002-8.84 1.603-14.13 2.604-1.318 0-1.32 1-1.32 1.201l1.32 1.002.304.04q.038 0 .045-.003v-.004a.2.2 0 0 1-.037-.021l-.01-.004v-.008c5.144-1.002 9.763-1.903 14.09-2.604 1.319 0 1.318-1.003 1.318-1.203 0-1.001-1.318-1-1.582-1zm70.851 2.002v1.403l-.263.3c3.693 1.603 6.99 3.605 10.552 6.31h1.32v-.007c.028-.016.202-.062 1.315.006v-1.402c-3.825-2.804-7.254-4.907-11.08-6.61zm-100.033 3.565c-5.409 1.101-9.365 1.903-13.059 2.805-1.319 0-1.32 1-1.32 1.2l1.32 1.003.395.06q.02-.001.03-.004h.003v-.002h.002v-.008l-.002-.002c-.007-.01-.025-.025-.031-.039v-.002l-.002-.004c3.694-1.001 7.52-1.703 12.928-2.805h1.32c1.32 0 1.319-1 1.319-1.2-.132-1.002-1.319-1.003-1.582-1.003zm-622.066 1.642s-1.451.041-1.715 1.002a218 218 0 0 1-4.09 7.711l-1.318 2.504c0 1.002.052 1.1 1.318 1.301v.07s1.32.001 1.32-1l1.319-2.504c1.319-2.603 2.77-5.107 4.09-7.71 0 0-.094-1.103-1.32-1.303zm595.103 4.717c-4.88 1.402-9.366 2.905-13.402 4.608 0 0-1.32 1.001 0 1.402l.945.717q5.853-2.356 12.854-4.422c1.319 0 1.318-1.002 1.318-1.303 0-1.001-1.32-1.002-1.715-1.002m-12.457 6.727-.207.084.58.199zm-480.713-2.293c-11.319-.371-21.081 1.524-29.115 5.73-21.727 11.236-27.954 36.763-33.402 59.235-1.98 8.211-3.957 16.043-6.463 22.482-5.673 14.46-22.4 26.097-40.09 38.424-9.63 6.71-19.55 13.588-27.545 20.988-11.873 10.976-20.909 22.753-29.72 34.139-9.763 12.628-18.943 24.564-30.815 33.867-21.028 16.503-50.565 24.456-73.928 29.533-15.368 3.305-38.545 8.41-61.076 3.203-11.477-2.603-21.965-7.309-32.004-11.695-12.664-5.608-25.723-11.327-40.854-13.17-25.314-3.104-39.945 5.508-50.67 11.736l-1.847 1.102C23.44 529.55 12.66 535.864 0 541.033v2.211c13.295-5.268 24.627-11.929 35.805-18.463l1.845-1.101c10.29-6.009 24.392-14.29 48.625-11.366 14.63 1.803 26.937 7.21 39.944 12.938 10.157 4.506 20.777 9.113 32.531 11.877 23.27 5.307 46.91 0 62.543-3.205 23.719-5.107 53.624-13.21 75.219-30.053 12.004-9.513 21.304-21.5 31.119-34.228 8.706-11.346 17.782-23.032 29.51-33.877 7.915-7.31 17.73-14.18 27.267-20.809 17.176-11.957 34.944-24.315 40.815-39.307 2.506-6.509 4.484-14.39 6.463-22.681 5.408-22.141 11.477-47.186 32.334-57.961 10.157-5.308 22.94-6.71 38.902-4.307 26.08 3.906 71.168 24.114 79.65 45.674 3.694 9.413 2.904 17.926-2.373 24.686-5.145 6.609-14.393 11.175-26.806 13.218-7.388 1.202-16.37 1.602-26 2.002-8.18 0-16.728 1.002-24.762 1.703-26.726 3.105-44.14 12.287-49.047 25.916-5.409 14.931 0 34.428 5.014 50.08 1.583 5.308 3.033 10.396 3.957 14.682 3.825 18.536 2.902 33.427-2.903 45.504-7.123 14.71-21.08 24.936-34.601 34.83-4.858 3.568-9.774 7.172-14.397 11.004h3.758c4.022-3.23 8.292-6.36 12.631-9.553 13.759-10.014 27.9-20.428 35.262-35.58 5.936-12.387 6.99-27.608 3.033-46.474-1.32-4.306-2.374-9.414-3.957-14.801-4.617-15.462-10.29-34.67-5.145-49.15 5.937-16.434 28.785-22.392 46.897-24.475 7.915-1.002 16.37-1.301 24.549-1.602 9.63 0 18.772-1.002 26.41-2.103 13.06-2.103 22.94-7.01 28.494-14.13 5.672-7.31 6.596-16.374 2.639-26.298-8.97-22.612-54.35-42.97-81.657-47.035-4.112-.626-8.059-1.001-11.832-1.125zm581.436.014c-23.719 0-57.45 9.213-75.166 20.609-14.274 9.113-27.993 21.329-21.727 42.389l.053.15h.053c0 1.202 1.318 2.304 1.582 3.506 5.012 10.815 10.686 23.04 20.58 32.574 6.595 6.309 20.512 16.895 39.904 16.895 5.804 0 11.873-1.002 17.875-2.905 7.124-2.303 18.811-9.713 25.262-15.361 15.817-13.49 34.299-34.949 37.478-50.09 3.958-18.286-8.707-38.995-27.478-45.264-4.881-1.602-11.082-2.503-18.416-2.503m58.14 1.507c-.235.014-.448.133-.572.446 0 0-1.319 1 0 1.4a75.6 75.6 0 0 1 6.992 9.514l.658-.721 1.32 1.002v-.08s1.32-1.002 0-1.402c-2.242-3.505-4.617-6.81-7.255-9.713 0 0-.624-.475-1.143-.446m-343.384.405c-8.443-.02-19.088-.071-26.172 3.404-2.77 1.302-5.013 2.905-7.123 4.307-3.166 2.103-6.2 4.105-10.422 5.507-6.596 2.203-13.602 3.907-20.356 5.71-3.693 1-7.518 1.902-11.343 3.003-2.111 1.002-4.223 1.301-6.202 2.002-2.638 1.002-5.408 1.903-8.046 2.504-2.507 1.002-5.276 1.002-7.915 1.002-2.242 0-4.485 0-6.595 1-32.663 5.308-40.817 16.104-45.117 35.38-2.903 13.12-4.88 27.69-6.727 43.142v3.503c-7.783 7.11-19.274 6.712-30.46 6.311h-10.157c-49.76 2.003-84.217 10.304-90.166 44.633-1.32 7.911-1.582 16.373-1.846 24.635 0 10.014-1.32 20.357-2.902 29.57-2.243 9.213-5.805 17.004-8.444 21.88-5.672 10.586-14.999 19.87-24.154 28.843A855 855 0 0 0 459.67 560h3.271q1.46-1.44 2.947-2.893c9.235-9.112 18.693-18.487 24.51-29.302 2.639-4.907 6.201-12.827 8.444-22.24 2.374-9.414 2.637-19.819 3.033-29.893 0-8.212 0-16.703 1.847-24.424 5.013-28.97 28.785-40.587 87.686-42.91h9.893c11.476 0 24.324 1.001 32.873-7.31v-4.106c1.978-15.412 3.826-29.954 6.728-43.002 4.221-18.817 11.74-28.64 43.084-33.787 2.11 0 4.221 0 6.332-1.002 2.77 0 5.672 0 8.31-1.102 2.77-1.001 5.674-1.602 8.444-2.603 1.847-1.002 3.957-1.401 5.936-2.002 3.693-1.002 7.519-2.003 11.212-3.004 6.86-1.803 13.853-3.505 20.58-5.809 4.618-1.502 7.915-3.705 11.08-5.908 2.111-1.402 4.354-2.804 6.86-4.105 6.464-3.105 16.544-3.106 24.723-3.106 1.45 0 2.901.01 4.22 0 12.137 0 23.85 1.002 34.905 3.305 25.394 5.307 36.08 12.688 40.763 28.32 2.375 8.112 7.65 28.39 3.034 39.957-3.035 7.61-11.741 11.877-18.416 14.09-19.762 6.61-43.81 5.908-65.022 5.307h-23.876c-8.971 0-16.227-1.002-25.395 2.203-1.32 0-2.243 1.002-3.43 1.002-3.43 1.001-7.386 1.702-9.893 4.006-1.319 1.101-1.846 2.203-2.506 3.304-1.319 1.202-1.32 2.302-2.375 3.203-5.936 5.108-16.357 10.405-24.628 10.776-5.673 0-11.478-.01-17.137 0h-8.047c-1.32-.03-2.242-.08-3.693 0-11.345 0-30.276-1.303-34.721 7.11-1.451 2.703-1.32 7.31 0 10.976v3.103c0 4.807 1.319 9.615 2.242 14.291 2.243 9.113 5.805 18.416 10.95 27.62 10.553 19.197 28.362 34.828 48.624 42.9 4.75 1.903 10.95 2.804 16.82 3.705 2.77 0 5.54 1.002 7.915 1.402 1.583 0 3.165 1 4.748 1 6.2 1.302 12.4 2.606 18.64 3.707 13.232 2.304 25.633 1.801 36.99 1 3.562 0 6.992.001 10.686-1 19.141-1.101 40.815-2.405 56.5-11.898 9.102-5.408 12.795-13.92 10.816-24.024-1.319-6.409-5.54-13.368-10.289-20.728-1.319-1.702-2.11-3.506-3.166-5.309-12.796-21.29-22.94-34.618-55.933-39.695h-1.846c-9.102-1.402-18.549-2.904-27.941-1.102-1.32 0-2.77 1.002-3.957 1.002-3.694 1.002-7.256 1.902-10.95 1-5.012-1.502-8.97-6.207-8.97-10.584 0-2.103 1.32-3.705 2.771-5.107 5.145-3.805 16.266-3.905 20.817-3.805 23.046 1.002 49.164 1.502 73.213 5.508 36.132 6.109 48.664 35.39 57.634 62.348 1.32 3.304 1.848 5.707 2.375 8.21 7.52 31.095-6.86 49.41-42.728 54.407-20.632 2.904-42.161 3.006-62.899 3.006l-2.636.01h-9.895c-6.991 0-14.326 1.001-20.816 0-6.332-1.002-13.06-2.404-19.418-4.006-1.979-1.001-4.09-1.001-6.069-1.502-4.089-1.001-7.65-1.102-11.476-1.402-1.32-.07-2.639 0-4.09 0-11.609-1.002-26.66-5.808-36.805-11.907-19.035-11.456-31.079-28.14-42.754-44.253-7.123-9.714-13.692-18.907-21.779-26.918-5.013-5.008-23.944-21.02-54.18-14.02-19.299 4.506-29.852 14.771-35.3 34.389-2.507 8.912-4.353 18.286-6.2 27.379-2.506 12.297-4.748 23.904-8.31 33.257-4.353 11.497-12.402 22.06-20.264 32.305l-.504.66h3.721c7.727-10.094 15.574-20.52 19.922-31.974 3.562-9.414 5.937-21.14 8.443-33.508 1.847-9.013 3.693-18.406 6.2-27.248 5.276-18.837 15.302-28.69 33.533-32.916 28.639-6.61 46.54 8.511 51.369 13.328 7.915 7.911 14.485 17.015 21.476 26.648 11.873 16.333 23.996 33.167 43.453 44.864 10.686 6.409 26.04 11.376 38.176 12.328h4.09c3.694 0 7.125-.001 10.818 1.3 1.98 0 4.088 1.002 6.067 1.502 6.464 1.603 13.272 3.205 19.789 4.106 6.86 1.001 14.207 1.001 21.396 0h12.401c20.909 0 42.503 0 63.36-3.104 37.595-5.207 52.621-24.313 44.812-56.699 0-2.603-1.32-5.008-2.375-8.312-9.103-27.54-22.057-57.462-59.627-63.81-24.233-4.107-50.446-4.808-73.676-5.509-5.936 0-17.043 0-22.729 4.307-2.374 1.702-3.562 3.906-3.562 6.51 0 5.107 4.75 10.605 10.555 12.437 4.617 1.402 8.705 0 12.795-1.002 1.319 0 2.507-1.002 3.826-1.002 8.838-1.602 17.992.001 26.804 1.203h1.848c32.452 5.008 41.634 17.935 54.047 38.594 1.32 1.803 2.242 3.604 3.166 5.307 4.485 7.21 8.838 14.09 10.025 20.209 1.847 9.313-1.583 17.215-9.894 22.162-15.092 9.113-35.367 10.283-55.05 11.455-3.693 0-7.254 0-10.815 1.002-11.213 1.001-23.324 1.301-36.172-1.002-6.2-1.102-12.532-2.403-18.508-3.705-1.583 0-3.167-1.002-4.75-1.002-2.507-1.001-5.277-1-8.047-1.4-5.672-1.002-11.609-1.803-16.094-3.606-19.76-7.81-37.029-23.134-47.437-41.9-5.013-9.113-8.575-18.225-10.686-27.198-1.319-4.606-1.846-9.313-2.242-14.08-.08-1.001 0-2.003 0-3.205 0-3.304-1.32-7.71 0-10.013 3.826-7.11 22.216-6.31 32.176-5.909 1.319.06 2.638 0 3.693 0 2.638.09 5.408 0 7.914 0 5.805 0 11.741 1.002 17.506 0 8.97 0 20.025-6.108 26.357-11.435 1.452-1.202 2.111-2.403 2.903-3.705 0-1.002 1.318-2.003 2.11-2.904 1.978-1.803 5.408-2.606 8.706-3.407 1.32 0 2.375-1 3.563-1 8.706-2.603 15.276-2.404 24.365-2.103 2.77.09 5.54 0 8.31 0h15.567c21.49 1.001 45.907 1.201 66.209-5.508 10.29-3.405 17.148-8.712 19.812-15.352 4.617-11.596.094-30.644-3.033-40.978-4.88-16.273-16.385-24.344-42.623-29.762-11.213-2.303-23.217-3.504-35.63-3.404-1.32.01-2.77.01-4.221 0zm285.296.24c6.86 0 12.795 1 17.36 2.303 15.513 5.107 29.998 24.104 25.908 43.11-3.034 14.732-21.265 35.782-36.752 49.1-7.123 6.11-18.269 12.868-24.363 14.811-5.672 1.803-11.346 2.805-16.873 2.805-18.31 0-31.542-10.085-37.848-16.114-9.63-9.313-15.235-21.37-20.142-32.005 0-1.202-1.32-2.303-1.584-3.504-5.937-19.988 7.256-31.645 20.91-40.377l-.053-.01c17.268-11.096 50.22-20.12 73.438-20.12zm-113.87 4.957c-1.32 1.001-2.374 1.402-3.561 2.203a186 186 0 0 0-7.52 5.107s0 1.002-.04 1.403h1.32l-.489-.201s1.2-.07 1.313-.008l.002.002h.002l.002.002v.004a169 169 0 0 1 7.388-5.006c1.32-1.002 2.243-1.503 3.43-2.104 0 0 1.32-1.002 0-1.402zm-580.368 4.217c-1.319 0-1.45.018-1.715 1l-1.847 3.406a173 173 0 0 0-3.694 6.809c0 1 .052 1.102 1.319 1.302v.07s1.32 0 1.32-1.001a173 173 0 0 0 3.693-6.811l1.846-3.404c0-1.002-.039-1.1-1.318-1.301zm765.895 9.492s-1.319 1.002-1.319 1.303a94 94 0 0 1 4.354 10.433l.527.08 1.319 1.002v-.02c1.319 0 1.32-1 1.32-1.2-1.32-3.505-2.64-7.111-4.486-10.596 0-1.002-1.32-1.002-1.715-1.002m-205.989 1.392c-3.43 3.005-6.463 6.008-8.837 8.913v1.101h2.11c2.243-2.804 5.277-5.707 8.575-8.611v-1.403zm-8.837 10.014h-.528l.528.3zm-561.504-.74-1.055.1c-1.32 0-1.451-.04-1.715 0-2.242 3.504-4.485 6.709-6.86 9.613v1.402h2.637c2.375-3.004 4.75-6.21 6.993-9.814 0 0 .04-1.1 0-1.301m414.812 1.092c-10.29 0-21.99 1.2-35.947 3.603l-43.27 15.653c-9.498 1.401-17.82 5.208-24.851 8.613-6.2 4.807-9.895 12.876-8.444 18.795 1.98 8.512 15.948 22.021 28.678 22.021l-.053-.55h3.3v-.003l.001-.002v-.002l.002-.002.002-.002.002-.002c.114-.07 1.337.012 1.84.012 5.673-1.702 9.102-6.208 12.268-10.084 1.319-1.001 1.582-1.901 2.242-2.803 5.145-5.908 10.157-9.514 16.04-11.607 2.507-1.001 5.015-1.3 7.653-1.3 3.958 0 7.915 1 12.004 2.1 7.52 1.903 16.595 2.405 23.23 2.805h7.651c15.184 0 27.729-2.804 37.24-8.312h.12c3.825-4.306 8.707-10.876 6.2-18.797l-.054-.09c-6.2-13.339-21.673-20.047-45.854-20.047zm-.039 1.28c22.94 0 37.491 6.31 43.309 18.677 1.715 5.407-.001 10.796-5.674 17.054-8.97 5.208-20.961 7.81-35.512 7.81-2.374 0-4.88-.06-7.387 0-6.595 0-15.46-1-22.584-2.702-4.089-1.102-8.442-2.203-12.927-2.203-3.034 0-5.805 0-8.707 1.502-6.332 2.203-11.741 6.107-17.176 12.316-1.32 1.001-1.584 1.803-2.375 2.805-2.902 3.705-6.2 7.81-10.95 9.312h-4.087c-11.345 0-24.313-12.668-26.133-20.369-1.32-5.207 2.11-12.666 7.65-16.973l.159.27c6.86-3.405 14.96-7.009 23.996-8.31v-.032l43.175-15.652c13.68-2.403 25.224-3.504 35.223-3.504m-266.275 5.64v.01c-3.034 1.802-8.047 4.706-5.936 9.312 2.375 4.106 8.839 7.211 14.815 7.211l-.686-.21c4.617 0 8.178-1.703 10.29-4.907h.118c0-2.604-1.319-5.007-3.693-7.01-3.694-2.804-9.632-4.606-14.908-4.406m407.123.81c-1.32 0-1.452 0-1.584 1.002 0 1.102-1.319 2.202-1.319 3.203v4.608c0 1.001.053 2.102 0 3.404.027 1.001 0 1.002 1.319 1.002l.172-.3h.091c1.32-.041 1.32-1.002 1.32-1.102-.118-1.302 0-2.304 0-3.305 0-1.602.12-3.005 0-4.307 0-1.001 0-2.002 1.32-3.004 0-1.001 0-1.1-1.32-1.2m-406.582.83c4.617-.04 9.498 1.403 12.4 3.807 1.451 1.101 3.035 2.903 3.035 5.307-1.979 2.904-5.277 3.605-7.783 3.605-5.013 0-10.422-2.604-12.4-5.908-1.32-2.804 1.45-4.807 4.748-6.71zm635.392.701c-1.319.07-1.32 1.002-1.32 1.102v7.512l.092.199c-.04 1.202-.119 2.305 0 3.406-.092 1.002 0 1.002 1.32 1.102 1.32 0 1.319 0 1.319-1.002v-3.606l.04-1.002v-6.709c-.091-1.001-1.319-1.002-1.45-1.002zm-801.396 8.553-.963.2a110 110 0 0 1-9.762 8.011s0 1.002-.092 1.402h1.319l.002-.002h.002l.002-.002c.027-.014.201-.055 1.314.004a88 88 0 0 0 10.026-8.21v-1.403zm571.043 8.432c-1.32 0-1.32 1.002-1.32 1.302 1.582 3.105 3.825 6.509 6.331 10.034l1.32 1.002c1.32 0 1.32-1.002 0-1.403-2.506-3.505-4.617-6.81-6.2-9.814l1.584-.12c0-1-1.32-1.001-1.715-1.001m227.726 4.687-1.187.3c-1.32 0-1.451-.041-1.715 0-1.979 3.003-4.485 5.909-8.047 8.913v1.4h2.639c3.561-3.104 6.331-6.107 8.31-9.312 0 0 .066-1.1 0-1.3m-819.715 1.037c-.255.014-.497.13-.662.444h-.527l-2.242 1.002c-3.166 1.402-6.73 3.104-10.291 4.806 0 0-1.32 1.002 0 1.403h1.32v-.002h.002l.002-.002c.027-.01.201-.039 1.315.004 3.43-1.803 6.992-3.405 10.158-4.807l2.111-1.002s1.32-1.002 0-1.402c0 0-.624-.473-1.185-.444m-305.689 11.16c-5.672 0-10.95 1-15.804 2.102-3.035 1.002-5.803 1.904-8.705 3.106v2.302c3.166-1.402 6.33-2.604 9.628-3.506 4.486-1.301 9.498-1.902 14.907-1.902 14.906 0 29.049 5.107 34.906 8.512 12.4 7.11 20.05 19.889 20.142 33.258.093 10.324-4.483 19.286-12.398 23.953-12.796 7.51-26.899 9.313-40.539 11.025-8.97 1.102-17.994 2.304-26.635 5.008v2.203c8.443-2.904 17.586-4.105 27.031-5.207 14.01-1.702 28.415-3.605 41.725-11.416l.014-.13c8.442-5.008 13.508-14.59 13.416-25.546-.053-13.97-8.18-27.309-21.174-34.85-6.2-3.504-20.96-8.911-36.514-8.911m281.116 2.262c-3.694 3.305-5.805 6.71-6.333 10.375-.092 1.002 0 1.002 1.319 1.102l-.264.24s1.319 0 1.319-1.002c0-3.305 2.374-6.308 5.804-9.312v-1.403zm631.646.399c-.255.013-.497.13-.662.443l-.791-.1s-1.32 1.002 0 1.403c2.506 2.904 5.276 6.007 8.31 9.111h1.321v-.002c.018-.009.164-.042 1.318.002 0 0 1.32-1 0-1.4a199 199 0 0 1-8.312-9.014s-.623-.473-1.184-.443m192.385 2.435c-1.32 1.002-2.638 1.803-3.957 2.604l-4.354 3.006c-1.319 1.001-1.716 1.2-2.508 1.8l-.816.06s0 1.003-.066 1.403h1.318s1.202-.07 1.315-.008v.008c1.319-1.001 1.714-1.202 2.506-1.803 1.45-1 2.902-1.902 4.353-2.904 1.32-1.001 2.638-1.802 3.957-2.703 0 0 0-1.002.092-1.402 0 0-1.318 0-1.845-.06zm65.658 5.094c-.255.013-.497.132-.662.445l-.924.1c-3.562 2.103-7.256 4.106-11.873 6.209 0 0-1.32 1.002 0 1.402h1.32v-.002c.018-.007.162-.033 1.317.002a242 242 0 0 0 12.004-6.308s1.319-1.002 0-1.403c0 0-.623-.475-1.184-.445zm-87.715 10.148c-1.451 1.202-2.901 2.305-4.484 3.506-1.847 1.502-3.827 3.003-5.674 4.405v1.402h2.639c1.978-1.502 3.825-3.004 5.672-4.406 1.45-1.102 3.035-2.303 4.486-3.504 0 0-.001-1.002-.041-1.403 0 0-1.318 0-1.846.01zm-153.244.088c-.255.014-.5.13-.664.444h-.791s-1.32 1.001 0 1.402c2.902 2.804 6.068 5.608 9.234 8.512h2.639v-1.403c-3.166-2.904-6.332-5.707-9.234-8.511 0 0-.623-.473-1.184-.444m215.113 2.176c-4.353 1.903-8.97 3.805-12.664 5.307 0 0-1.319 1.002 0 1.402l1.319 1.002v-.09c3.693-1.602 8.311-3.506 12.796-5.308 0 0 1.32-1.002 0-1.403 0 0-1.319-1.001-1.714 0zm-867.855.11c-1.32 0-1.319 1-1.319 1.2 0 1.703 1.319 3.507 1.582 5.21 0 1.902 1.32 3.704 1.584 5.607l1.319 1.002a.3.3 0 0 0 .058-.008l-.002-.002h-.002l-.054-.002c1.319 0 1.32-1 1.32-1.201 0-1.903-1.32-3.705-1.584-5.608 0-1.802-1.318-3.504-1.582-5.207l.264.01c-.132-1.001-1.32-1.002-1.584-1.002M26.7 391.903c-10.421 0-22.306 5.607-26.21 13.649v7.111c3.693 4.907 10.156 7.61 18.546 7.61l-.014-.03c11.213 0 22.624-5.007 26.028-11.476 2.374-4.407 0-9.014-4.748-12.96-3.562-2.603-8.312-3.904-13.602-3.904m1173.3 1.794c-6.274 2.193-13.05 3.893-20.107 5.647-6.069 1.502-12.27 3.105-18.588 5.008-21.133 6.609-69.033 29.75-73.623 55.357 0 3.505 0 6.71 1.32 9.715h.092c10.29 14.97 48.322 28.078 81.354 28.078 11.957 0 22.042-1.82 29.552-5.275v-2.375c-7.155 3.682-17.27 5.699-29.5 5.699-31.541 0-69.125-12.85-78.94-26.95-1.318-3.204-1.845-5.908-1.318-8.812 4.222-23.393 48.993-46.575 72.026-53.775 6.2-2.003 12.4-3.506 18.402-5.008 6.71-1.721 13.234-3.347 19.33-5.399zm-1173.324.17c4.617 0 8.706 1.201 11.74 3.404 4.617 3.405 6.069 7.011 4.09 10.756-2.902 5.608-13.549 10.265-23.574 10.235-4.75 0-13.06-1.102-17.229-8.012 1.32-9.413 13.72-16.354 24.893-16.354zm1119.135 2.46c-.236.013-.449.132-.573.444l-.79-.101c-4.882 2.103-8.972 3.907-12.534 5.61 0 0-1.32 1 0 1.4h1.32v-.004c.027-.014.202-.056 1.315.004 3.562-1.703 7.52-3.505 12.4-5.608 0 0 1.32-1 0-1.3 0 0-.624-.475-1.142-.446zm-57.245 2.857-1.015.15c-3.958 2.804-7.387 5.108-10.817 7.21 0 0-1.319 1.003 0 1.403h1.319v-.004s0-.003.01-.004c.038-.017.238-.057 1.31.008 3.43-2.103 7.124-4.506 10.95-7.31 0 0 0-1.002.091-1.403 0 0-1.318 0-1.845-.05zm-116.298 1.822v1.402c3.561 2.804 7.255 5.207 10.949 7.41h2.638v-1.4c-3.561-2.103-7.255-4.507-10.685-7.211l-1.055-.201zm-723.05 6.861-.157.27c-29.537 0-64.494 17.984-70.444 36.32q-1.978 4.507 0 9.615v2.403h.053c6.728 14.14 24.854 22.931 47.451 22.931 21.12 0 39.811-7.71 48.848-20.008l.08-.09c0-1.101 1.319-2.102 1.715-3.103 5.672-9.914 9.233-15.963 7.123-26.127-2.902-14.34-15.184-22.21-34.668-22.21m58.507.1c-1.32.05-1.32 1.001-1.32 1.101.092 1.102 0 2.204 0 3.205l-.04 1c-.053 2.404 0 4.809 0 7.112-.092 1.001 0 1.001 1.319 1.101h.093c1.32 0 1.319 0 1.319-1.002v-8.21c0-1.102-.053-2.204 0-3.305-.093-1.002-1.319-1.002-1.319-1.002zm813.203.316c-.255.014-.498.133-.662.446l-.448-.102c-1.319 0-1.715 1.001-2.375 1.502-2.77 1.702-5.54 3.506-8.838 5.709 0 0 0 1.002-.08 1.402h1.319v-.006c.027-.018.201-.07 1.314.006 3.166-2.203 5.936-4.107 8.575-5.709 1.319 0 1.583-1.002 2.375-1.402v-1.4s-.625-.475-1.186-.446zM248.98 410.12c18.033 0 29.393 7.311 32.124 20.51 1.978 9.613-1.452 15.392-6.993 25.025l.133.03c0 1.001-1.319 2.002-1.715 3.003-8.574 11.677-26.423 18.928-46.54 18.928-16.728 0-37.267-5.608-44.905-21.48-.053-1.002 0-1.502 0-2.203v-9.014c5.672-17.565 39.39-34.799 67.896-34.799m815.934 2.725-.506.226c-.304-.041-.615.03-.824.362a94 94 0 0 1-11.467 4.119c-1.319 0-1.318 1-1.318 1.3l1.318 1.003v-.041c4.353-1.202 8.84-2.904 13.272-4.907 0 0 1.319-1.002 0-1.402 0 0-.468-.352-.957-.428zm-69.594 1.252c-.088.003-.17.011-.27.029 0 1.001-.118 1.102 0 1.402a85 85 0 0 0 13.733 4.205q.043.003.051.01v.01l-.045.012s1.319 0 1.319-1.002c0-1.001 0-1.1-1.319-1.201l1.174.67c-4.353-1.001-8.84-2.303-13.06-4.106-.99 0-1.31-.039-1.577-.029zm27.934 5.847c-.563.039-.587.261-.686 1.012-.04 1.001 0 1.001 1.319 1.102h6.861c2.77 0 5.408-.08 7.914 0 1.32-.05 1.318-1.002 1.318-1.102-.092-1.001-1.317-1.002-1.449-1.002h-14.512a8 8 0 0 0-.765-.01m153.064 2.063-.053.13c-17.73 0-39.865 7.812-49.324 17.376-5.54 5.708-8.576 13.427-7.652 19.736 3.166 11.096 22.48 17.084 38.996 17.084 8.97 0 16.753-1.7 21.99-4.705 8.523-4.877 17.697-18.976 19.725-30.229v-8.523c-.537-1.784-1.435-3.287-2.602-4.459-4.221-4.206-11.608-6.41-21.08-6.41m-78.32 1.402c-2.902 2.103-5.804 4.307-8.838 6.51l-1.584 1.201v1.402h2.639l1.584-1.101c2.902-2.203 5.935-4.407 8.838-6.51 0 0-.001-1.002.039-1.402 0 0-1.318 0-1.846-.04zm78.201.73c6.068 0 14.26 1.004 18.944 5.61 2.374 2.303 3.033 6.208 2.242 11.275l.053.01c-1.847 10.836-10.685 24.425-18.772 29.102-4.88 2.804-12.004 4.305-20.394 4.305-15.421 0-33.414-5.407-36.422-15.461-1.32-5.808 1.978-12.999 7.123-18.256 8.97-9.113 30.222-16.584 47.226-16.584zm-870.558 5.63.13.18c-1.319 0-1.45 0-1.582 1.001-1.319 3.605-2.111 7.11-3.562 10.574 0 1.002 0 1.101 1.318 1.202a.2.2 0 0 1 .037.017l.002.002.002.002v.006l-.002.002-.002.002h-.002l-.035.01s1.32 0 1.32-1.002c1.452-3.505 2.639-7.21 3.694-10.795 0-1.001 0-1.1-1.318-1.2zm398.283 1.38c-13.548 0-25.842 4.207-32.992 11.157-6.728 6.609-8.577 15.011-5.41 24.465 4.485 13.208 16.913 25.846 33.363 33.847 4.221 2.003 7.518 2.303 10.156 2.303 1.32 0 2.244-.06 3.299 0h6.726c3.298 0 7.521 1.002 12.006 1.803 5.54 1.001 11.872 2.103 17.729 2.504 1.45.08 2.902 0 4.353 0 8.047 0 13.813-1.803 17.453-5.508 2.111-2.103 8.838-9.414 9.63-16.114 1.318-6.409-5.276-11.826-9.63-15.751-2.77-2.504-5.803-4.507-8.837-6.51-5.145-3.405-9.895-6.508-12.534-11.615-4.749-8.512-12.532-13.9-26.238-17.856-6.068-1.802-12.532-2.703-18.996-2.703zm-299.367.622q-3.754 0-7.881.751c-1.32 0-1.32 1.001-1.32 1.202h.005l.002.002.002.002h.002l.002.002c.075.085.05.996 1.307.996l.818.01c.015 0 .052 0 .06-.002v-.002h-.003l-.057-.006c5.013-1.002 9.761-1.002 13.916 0 0 0 1.453 0 1.584-1.002.12-1.002 0-1.101-1.32-1.201q-3.364-.752-7.117-.752m299.22 1.402c6.2 0 12.137 1.002 18.086 2.504 13.06 3.805 20.237 8.712 24.696 16.763l.144.04c3.034 5.607 8.049 8.913 13.299 12.388 2.902 1.903 5.804 3.905 8.574 6.309 5.145 4.606 9.63 9.112 9.102 14.289-1.32 6.108-7.123 13.09-9.102 15.062-3.166 3.105-8.048 4.606-15.33 4.606-1.32 0-2.637-.04-4.088 0-5.672 0-11.873-1.401-17.361-2.403-4.485-1-8.839-1.502-12.4-1.802-1.32-.08-2.11 0-3.297 0-1.451 0-2.64.05-3.96 0-1.319.08-2.242 0-3.165 0-2.375 0-5.012-.001-8.705-2.004-15.896-7.711-27.941-19.958-32.268-32.676-3.034-8.812-1.32-16.684 4.88-22.742 6.597-6.51 18.165-10.334 30.895-10.334m-319.185 3.596c-.396 0-.857.249-1.121.75-4.354 1.802-8.839 4.007-12.4 6.01 0 0-1.32 1 0 1.4h1.318l-.526-.1.002-.002c.018-.007.162-.033 1.317.002a115 115 0 0 1 12.136-5.908s1.32-1.002 0-1.402c0-.501-.33-.75-.726-.75m41.344.62s-1.452 0-1.848.08v1.401c3.034 2.103 5.805 4.707 8.707 8.412l-.133.32h1.32s0-.03 1.319 0c0 0 1.319-1 0-1.4-3.034-3.805-6.068-6.61-9.365-8.812m652.091 1.372-.832.03a1360 1360 0 0 1-10.685 7.51s0 1.003-.092 1.403h1.318v-.006c.027-.014.202-.053 1.314.006 3.166-2.103 6.727-4.608 10.817-7.512v-1.402s-1.318 0-1.846-.03zm-970.078 7.82.408.041c-3.957 1.001-8.969 1.602-14.232 2.703-1.32 0-1.32 1.003-1.32 1.203l1.32 1a.1.1 0 0 0 .031-.004h.002v-.002h.002v-.002l-.002-.002v-.002h-.002c-.006-.007-.022-.019-.03-.025h-.001v-.002c5.277-1.102 10.156-2.204 13.955-2.705 1.32-.1 1.32-1.001 1.32-1.201-.092-1.002-1.319-1.002-1.45-1.002zm15.408 1.043c-1.319 0-1.45.019-1.714 1 0 1.001.025 1.102 1.318 1.303 3.694 1.201 7.125 3.305 10.818 6.51h2.637s.001-1.002.094-1.403c-3.958-3.505-7.784-5.708-11.873-7.01zm172.204 3.135c.42.064.707.115.902.191.364.003.682.008.682.008zm.902.191a21 21 0 0 0-1.033.008c-1.98 3.205-4.222 6.509-6.729 9.713v1.303h1.32c2.507-3.205 4.75-6.61 6.86-9.914 0-.683 0-.947-.418-1.11m65.756.018s-1.32 0-1.848.031c-3.298 2.604-6.332 5.407-9.498 8.512v1.402h1.32l-.474-.23h1.318c3.034-3.005 5.937-5.81 9.234-8.313 0 0 0-1.002-.052-1.402m-282.17 1.252.13.03c-2.374 0-4.484 1.002-6.595 1.202-2.506 0-5.011 1.001-7.518 1.201-1.319.1-1.32 1.001-1.32 1.202l1.32 1.001v-.029c2.639 0 5.144-1.003 7.65-1.203 2.111 0 4.354-1 6.596-1.201 1.32 0 1.319-1.001 1.319-1.201 0-1.002-1.318-1.002-1.582-1.002m975.685.447c-.255.013-.497.13-.662.443-3.957 1.703-8.31 3.005-13.191 3.907-1.32 0-1.319 1-1.319 1.2l1.319 1.003v-.051c5.145-1.001 9.63-2.403 13.76-4.106 0 0 1.319-1.001 0-1.402l1.279-.55s-.624-.474-1.186-.444m-615.816 3.117c-1.32 0-1.318 1.003-1.318 1.303 1.846 3.305 3.428 6.81 4.748 10.285l.527.2 1.32 1.001a.1.1 0 0 0 .037-.004l.002-.002v-.002h.002v-.002h-.002v-.002l-.002-.002c-.007-.007-.026-.017-.035-.023l-.002-.002v-.002c1.32 0 1.319-1.001 1.319-1.201-1.32-3.605-2.902-7.21-4.881-10.545 0 0-1.32-1.002-1.715-1.002m-388.508.942c.06 0 .17 0 .309.011l.008-.002zm.309.011c-5.801 1.001-10.284 1.702-14.227 2.403-1.319 0-1.318 1-1.318 1.2h.002c.134.016 1.316 1.003 1.316 1.003v-.01c3.958-1.002 8.312-1.503 14.182-2.405 1.319-.09 1.318-1 1.318-1.2 0-.778-.794-.952-1.273-.99zm516.593.1c-5.144 0-9.761 1.701-13.996 4.205 0 0-1.319 1.002 0 1.402h1.319l-.973.282c.116-.015.426-.025 1.25.02 3.826-2.304 8.048-3.507 12.533-3.808 1.32-.04 1.319-1.001 1.319-1.101-.053-1.002-1.32-1-1.452-1m-175.105.07c-16.265 0-29.866 11.306-34.945 16.143-14.762 14.17-23.917 37.511-30.908 58.46l1.093.452c0 1.302-1.318 2.303-1.582 3.404-1.319 2.404-2.506 4.708-1.978 9.414h.092c1.978 1.402 4.22 3.105 7.123 4.006 2.77-1.001 5.54-1.501 8.443-2.303 29.351-8.01 62.674-17.115 81.894-38.586h.092c7.124-10.945 5.672-27.157-3.562-38.513-6.332-8.012-15.552-12.367-25.762-12.467zm634.664 1.572c-4.353 0-8.837 0-13.059 1l-1.32.051c-1.319.05-1.318 1.002-1.318 1.102.053 1.001 0 1.002 1.318 1.002h.092l1.32-.041c4.354 0 8.838 0 13.231-1.002 1.32-.07 1.318-1.002 1.318-1.102-.053-1.001-1.319-1-1.45-1zm-444.256.37c-1.319 0-1.45.06-1.715 1.002 0 .307.01.528.057.695a62 62 0 0 1 12.08 5.113h2.637v-1.402c-4.09-2.303-8.574-4.107-13.059-5.408m-1.658 1.697-.32-.094.338.15q-.01-.026-.018-.056m.018.056c.122.33.437.42 1.244.551zM394.3 459.37c9.234.06 17.69 4.106 23.6 11.496 8.706 10.795 10.157 26.167 3.43 36.531-18.786 20.89-50.182 29.472-80.589 37.774-2.638 1.001-5.276 1.402-7.914 2.203-2.11-1.001-3.825-1.903-5.408-3.205 0-3.906 0-5.908 1.715-8.111 0-1.102 1.318-2.204 1.582-3.606 6.86-20.73 15.963-43.811 30.447-57.701 4.881-4.607 17.689-15.371 32.86-15.371zm604.482.691c-5.54 1.002-10.289 1.402-14.365 2.604-1.32 0-1.318 1-1.318 1.3l1.318 1.003v-.051c3.826-1.202 8.312-2.001 13.76-2.502 1.319-.06 1.318-1.001 1.318-1.102-.079-1.001-1.32-1.002-1.451-1.002zm-973.797 1.551-1.582.701c-4.221 1.202-7.52 2.404-10.422 3.706-1.319 0-1.848 1-2.771 1.501 0 0-1.32 1.002 0 1.403h1.32v-.002h.002l.002-.002c.027-.016.202-.064 1.315.004 1.319 0 1.715-1.002 2.638-1.403q3.958-1.95 9.895-3.603c1.32 0 1.318-1.002 1.318-1.303 0-1.001-1.319-1.002-1.715-1.002m529.674 1.114a.2.2 0 0 0-.062.015h-.002v.002h-.002v.002zm-412.4.66s-1.32 1.001 0 1.402c1.319 1.001 1.584 1.401 2.244 2.002 2.506 2.103 5.144 4.207 7.914 6.11h1.32s1.2-.073 1.313-.01l.002.001.002.002v.002h.002c0-.006-.001-.999-.028-1.398a200 200 0 0 1-7.78-5.908l-.9-.301c-1.318-1.001-1.45-1.201-2.241-1.902zm201.504 3.906c-2.902 3.405-5.408 6.908-7.387 9.512v1.402l-.793 1.002q0 .014.002.023l.002.002v.002l.002.002.002.002.002.002.002.002.006.002c.055.016.293-.037 1.303-.037 0 0 1.318 0 1.318-1.002 1.979-2.603 4.486-6.109 7.256-9.513v-1.4zm628.254 1.14-.131.432c-3.43 2.604-6.07 5.807-8.18 9.512 0 1.001.026 1.102 1.318 1.303v.07s1.32 0 1.32-1.002c1.848-3.505 4.486-6.509 7.52-8.912v-1.402zm-427.323.44a3.4 3.4 0 0 0-.51.041c-2.242 2.904-4.354 6.308-6.2 10.174 0 1.001.093 1.102 1.32 1.303l-.66.65v.09s1.318 0 1.318-1c1.847-3.705 3.826-7.11 6.068-9.815v-1.402s-.742-.055-1.336-.04M282 470.164l-1.187.1c-1.715 1.902-3.694 3.706-5.672 5.609-1.32 1.001-2.507 1.502-3.827 2.303 0 0-1.319 1.002 0 1.402h1.32v-.002h.003l.002-.002c.027-.01.201-.038 1.314.004 1.32-1.001 2.77-1.604 4.09-2.305 1.979-1.902 3.958-3.804 5.805-5.707v-1.402zm323.05 1.211v1.402c2.903 2.504 5.805 5.309 8.971 8.614l-.66.17h1.32v-.002h.003v-.002h.002c.027-.015.201-.056 1.314.004 0 0 1.32-1.002 0-1.403-3.298-3.405-6.2-6.21-9.101-8.713 0 0-1.32 0-1.848-.07M.003 475.092v2.603s0-1.002 1.318-1.002v-1.602zm447.988 1.851c-1.319.09-1.318 1.001-1.318 1.202 1.319 3.705 1.318 7.31 1.318 10.845.053 1.002.001 1.002 1.32 1.002l.264.07c1.32-.01 1.319 0 1.319-1.001-.04-3.606 0-7.41-1.319-11.116-.119-1.001-1.32-1.002-1.584-1.002m-284.676 1.262v1.402c4.09 2.204 8.18 4.306 12.4 6.008 0 0 1.32.001 1.32-1 0 0 .02-.256.032-.543a106 106 0 0 1-11.904-5.867zm13.752 5.867.1.041-.1-.6c.011.156.008.362 0 .56m0-.558a.7.7 0 0 0-.033-.202zm82.205.46q-.374.159-.75.315a.61.61 0 0 0-.47.195c-3.86 1.578-7.904 2.91-11.84 3.996-1.32 0-1.318 1-1.318 1.301l1.318 1.002q.044 0 .05-.002h.003v-.004h-.004c-.008-.004-.03-.013-.041-.021l-.002-.002-.002-.002-.002-.002v-.002h-.002v-.006c4.485-1.302 8.97-2.803 13.402-4.705 0 0 1.32-1.003 0-1.303 0 0-.471-.358-.935-.432zm324.924 2.003c-1.319 0-1.45 0-1.582 1.002l-1.426-.502c0 1.001 0 1.103 1.319 1.203 3.957 1.001 8.312 2.202 12.533 4.605h2.638v-1.402c-4.616-2.504-9.234-4.105-13.482-4.906m-15.498.732c-.365.022-.762.273-.95.75-2.112 1.001-4.09 1.802-6.07 3.004-1.45 1.602-2.77 3.305-4.09 5.008v1.4q0 .018.003.03l.002.001v.002l.004.004.006.004.006.002c.062.014.31-.043 1.299-.043 0 0 1.32.001 1.32-1 1.32-1.702 2.505-3.304 3.824-4.806 1.715-1.102 3.43-2.004 5.278-2.705 0 0 1.286-.976.046-1.29-.13-.257-.393-.378-.677-.36zm-240.658.719a253 253 0 0 1-7.256 9.513v1.403h1.715c2.243-2.804 4.487-5.709 7.389-9.514 0-1.001.118-1.102 0-1.402zm632.713.988c-.563.037-.587.265-.686 1.016v11.214c.093 1.002 1.318 1.002 1.319 1.002l.133-.199c1.319-.06 1.318-1.001 1.318-1.101V489.53c.08-1.001 0-1.001-1.318-1.101a7 7 0 0 0-.766-.014m-770.5.205c-1.32 0-1.451.069-1.715 1 0 1.002.092 1.103 1.318 1.303 4.75 1.302 9.499 2.303 14.274 2.904 0 0 1.32 0 1.32-1.002 0-1.001 0-1.101-1.32-1.101l-.117-.301c-4.617-1.002-9.235-1.601-13.76-2.803m432.941.106c-.255.013-.497.132-.662.445 0 0-1.319 1 0 1.4 1.32 1.302 2.243 2.605 3.43 3.907h-.924c1.583 1.702 3.165 3.504 4.748 5.306h1.32l.002-.002h.002c.028-.012.202-.049 1.315.002 0 0 1.32-1 0-1.4-1.583-1.803-3.034-3.506-4.617-5.309-1.32-1.302-2.243-2.602-3.43-3.904 0 0-.622-.475-1.184-.445m-88.572.794c-1.32 0-1.452.001-1.584 1.002-1.32 3.906-2.373 7.61-3.297 10.815 0 1.001 0 1 1.319 1.201l.263-.129a.1.1 0 0 1 .03.012l.004.004h.002v.01l-.002.002v.002l-.002.002c-.01.01-.032.017-.032.017s1.32.001 1.32-1c1.32-3.204 1.978-6.91 3.298-10.736 0-1.001 0-1-1.319-1.201zm-301.787 1.663-.37.2c-4.748 1.002-9.497 1-14.22 1-1.319 0-1.318.001-1.318 1.003 0 1.001-.001 1.002 1.318 1.002 4.881 0 9.895 0 14.723-1.002 1.319 0 1.318-1.001 1.318-1.201-.092-1.002-1.32-1.002-1.451-1.002m850.959 5.437c-.557.041-.557.251-.557 1.002l.358.19c-.04 1-.001 1 1.318 1.101 4.485 0 9.103 1.003 14.234 1.604h.015v.004l-.015.006s1.319-.001 1.319-1.002 0-1.101-1.318-1.202c-5.277-1.001-10.026-1.302-14.59-1.703a8 8 0 0 0-.764 0m-16.07.131c-3.958 0-7.782 1.4-11.871 2.803 0 0-1.32 1.002 0 1.302l1.318 1.002v-.08q5.738-1.953 11.082-2.705c1.32-.09 1.582 0 2.373 0 1.32-.04 1.32-1.001 1.32-1.101-.04-1.002-1.319-1-1.45-1l-.264-.221c-1.32.07-1.717 0-2.508 0m-461.71 1.012-.566.25s0 1.001-.092 1.402c3.035 2.504 6.069 5.308 9.235 8.412h1.318v-.002h.002v-.002l.006-.002c.038-.013.239-.043 1.31.006 0 0 1.32-1.002 0-1.402-3.033-3.205-6.33-6.01-9.364-8.614 0 0-1.32.001-1.848-.048zm-157.138 1.181v.13c-1.32 0-1.32 0-1.451 1.001-1.32 3.705-1.847 7.211-3.43 10.506 0 0 0 1.1 1.318 1.3v.061s1.32 0 1.32-1.002c1.584-3.404 2.77-7.109 3.561-10.894.093-1.002.001-1.002-1.318-1.102m664.123 1.862c-1.32 0-1.452 0-1.584 1.002 0 1.001 0 1 1.32 1.2l.303.071c4.75 1.001 9.498 2.003 13.996 3.004l.037.012v.012c-.012.005-.035.008-.035.008s1.319 0 1.319-1.002 0-1.1-1.319-1.301a1036 1036 0 0 0-14.035-3.006zm-151.467 1.213c-1.319 0-1.32 1-1.32 1.2 1.451 4.006 3.562 7.411 6.068 10.315h1.321l.002-.002c.018-.007.162-.033 1.316.002 0 0 1.32-1.002 0-1.402-2.374-2.704-4.353-6.008-5.672-9.713l-.133.6c0-1.002-1.318-1-1.582-1m-408.666 2.793c-1.319 0-1.45.03-1.715 1.001-1.846 3.305-3.43 6.81-5.013 10.495 0 1.001 0 1.102 1.32 1.302v.03s1.318 0 1.318-1c1.451-3.605 3.034-7.01 4.881-10.286 0-1-.039-1.102-1.318-1.302zm491.59.197c-.255.013-.497.13-.662.443h-.658c-2.902 1.502-5.805 3.105-8.707 4.707-1.32 1.002-2.11 1.203-3.166 1.703 0 0-1.32 1.002 0 1.403h1.318v-.006c.027-.015.202-.054 1.315.006 1.319-1.002 2.11-1.202 3.166-1.803 2.902-1.502 5.804-3.206 8.574-4.608 0 0 1.319-1.001 0-1.402 0 0-.624-.473-1.186-.443zm-731.006 1.234a134 134 0 0 1-8.838 8.613s-.002 1.002.118 1.403h1.32l-1.174.1h1.318c3.166-2.704 6.07-5.61 9.104-8.714v-1.402zm827.567.742c-1.32 0-1.319 0-1.582 1.002 0 1.002-.001 1.101 1.318 1.201l.186-.03c5.54 1.2 10.024 2.103 14.14 2.804l.037.016v.012c.174-.006 1.285-.075 1.285-.998 0-1.002 0-1.103-1.32-1.204-4.09-1.001-8.575-1.6-14.063-2.802zm-501.282.108c-.255.013-.497.13-.662.443 0 0-1.319 1.002 0 1.402 3.126 3.263 5.995 6.036 8.987 8.612h.433v-.002h.002v-.002l.002-.002c.027-.018.202-.07 1.315.006 0 0 0-1.002.08-1.403-2.902-2.603-5.805-5.406-8.97-8.61 0 0-.625-.474-1.186-.444zm8.325 10.457h-.887l1.004.1zm-119.282-6.29c-1.319 0-1.452.001-1.584 1.003-1.319 3.605-2.11 7.21-3.166 10.795 0 1.001.001 1 1.32 1.2a.1.1 0 0 1 .04.009h.002c.212-.01 1.277-.096 1.277-.998 1.32-3.605 2.11-7.21 3.166-10.795 0-1.002 0-1.103-1.318-1.203zm671.223.786q-1.257.258-2.537.476c-1.32 0-1.318 1.003-1.318 1.204.108.015 1.316 1 1.316 1l1.068-.58a.2.2 0 0 0 .051-.005v-.004a.3.3 0 0 0-.05-.011q.738-.148 1.468-.299zm-30.16.166c-1.32 0-1.451 0-1.451 1.002-.092 1.001 0 1.001 1.32 1.101l-.225-.1c5.277 1.002 10.026 1 14.59 1h.04c1.318 0 1.32.002 1.32-1 0-1 0-1.001-1.32-1.001-4.486-.03-9.103 0-14.274-1.002m-544.998 2.81c-.255.014-.497.133-.662.446l-.791-.102s-1.32 1.002 0 1.403c3.43 3.504 6.2 6.309 8.838 8.812h1.32v-.002h.002l.002-.002c.027-.012.201-.047 1.314.004v-1.402a324 324 0 0 1-8.84-8.711s-.622-.475-1.183-.446m394.441 2.89-.502.214a.61.61 0 0 0-.494.209q-6.372 2.667-12.062 3.781c-1.32 0-1.32 1.001-1.32 1.201l1.32 1.002h.033v-.004c0-.003-.015-.01-.022-.015v-.02c4.353-1.002 8.836-2.304 13.638-4.407 0 0 1.32-1.002 0-1.302 0 0-.491-.373-.965-.436zm-435 1.343c-3.416.15-6.463 1.387-8.953 3.953-7.255 6.81-8.443 20.558-5.805 30.092a63 63 0 0 0 2.262 6.699h3.211a63 63 0 0 1-2.57-7.29c-2.902-10.654-1.319-22.88 5.277-28.429 2.243-2.103 4.88-3.105 7.914-3.105 1.451 0 2.903 0 4.486 1.002 5.937 1.702 11.873 7.21 18.997 13.51 6.727 5.908 14.18 12.696 22.9 17.312 5.393 2.842 11.327 5.116 17.51 7h7.984c-8.644-2.19-16.995-4.976-24.254-8.832-8.442-4.506-15.883-11.104-22.426-16.973-7.255-6.509-13.535-12.157-20.025-14.09-2.276-.638-4.458-.94-6.508-.85m-145.342.447c-1.319 1.002-1.714 1.904-2.77 2.805-1.45 1.402-3.693 3.205-6.595 5.408l-1.148.4s0 1.002.092 1.403h1.32s1.2-.08 1.312-.01l.002.002.002.002.002.002v.004c2.903-2.203 5.278-4.208 6.729-5.61 1.319-1.001 1.979-1.902 2.902-3.004v-1.402zm538.26.442s-.092 1.101 0 1.402c3.298 1.402 6.994 2.403 11.215 3.004h3.164c1.32 0 1.32 0 1.32-1.002.066-1.002 0-1-1.32-1l.66.299c-1.319-.04-2.11 0-2.902 0-3.826-1.002-7.386-1.502-10.42-2.703zm-682.787 2.634c-1.32 1.002-1.583 1.002-2.242 1.502-2.77 1.803-5.673 3.604-8.97 5.407 0 0-1.32 1.001 0 1.402h1.318l-.899.142c.142-.01.457-.016 1.201.018 3.298-1.903 6.334-3.605 9.104-5.508 1.319-1.001 1.45-1.001 2.242-1.502 0 0 0-1.002.092-1.402 0 0-1.318.002-1.846-.059m-10.793 8.453a.5.5 0 0 0-.115.016l-.002.002zm376.559-6.851s-1.32 0-1.848.07c0 0 0 1.002.053 1.403 3.529 2.487 7.3 4.79 10.965 6.738h2.043v-1.403c-3.826-1.902-7.52-4.204-11.213-6.808m9.17 8.21h-.596l1.107.272q-.255-.134-.511-.271m-125.575-6.978c-1.319 0-1.45 0-1.582 1l.264-.049c-1.32 3.606-1.847 7.21-2.639 10.946 0 1.001.001 1.001 1.32 1.101 0 0 1.319 0 1.319-1.002 1.32-3.605 1.583-7.31 2.639-10.795 0-1-.001-1.1-1.32-1.2m564.168 6.461c-4.81.224-9.638.819-14.443 1.92-13.864 3.205-23.363 9.915-32.637 16.514-4.546 3.272-9.182 6.588-14.422 9.492h3.008c4.512-2.653 8.611-5.565 12.654-8.441 9.367-6.71 18.27-13.048 31.594-16.082 18.535-4.206 37.756-1.003 54.813 2.402 5.672 1.001 11.212 2.003 16.08 2.603 13.446 1.634 25.116 1.881 35.41 1.094v-1.988c-10.158.807-21.69.588-35.002-1.008l.582.422c-4.88-1.001-10.159-1.602-15.91-2.604-13.02-2.328-27.295-4.995-41.727-4.324m-466.193.367v1.403c3.694 2.804 7.256 5.207 11.082 7.31h2.638v-1.402c-3.693-2.103-7.124-4.405-10.818-7.209h-1.845zm-119.898.112c-1.32 0-1.452-.001-1.584 1-1.32 3.905-2.375 7.41-3.43 10.685 0 1.002 0 1.101 1.32 1.201l.131.022v.01s1.32 0 1.32-1.002c1.32-3.305 2.242-6.81 3.56-10.715.12-1.001.002-1.1-1.317-1.201m-249.387 2.74c-.255.013-.497.13-.662.443h-.924c-4.09 2.103-8.31 4.105-12.135 6.008 0 0-1.319 1.002 0 1.402h1.321v-.002l.006-.002c.037-.013.238-.044 1.31.004 3.958-1.902 8.18-4.004 12.27-6.007 0 0 1.319-1.002 0-1.403 0 0-.625-.473-1.186-.443m146.398.564-.883.059c-1.319 1.001-1.45 1.003-2.242 1.504-2.902 2.003-5.937 3.904-8.84 5.707v1.402h1.32v-.002l.003-.002.002-.002c.027-.018.201-.07 1.314.006 2.77-1.802 5.804-3.706 8.838-5.709 1.32 0 1.453-1 2.244-1.502 0 0 0-1.001.092-1.402 0 0-1.32.001-1.848-.059m261.672.11v1.303l1.121.76c4.222 1.401 8.575 2.302 13.957 3.003 0 0 1.319.001 1.319-1s0-1.003-1.319-1.203c-5.276-1.001-9.366-1.5-13.363-2.803v-.06zm-601.45.781q.213.015.382.03h.08zm.382.03H64.76c-1.32.04-1.32 1-1.32 1.1h.003v.003h.004l.002.002.002.002.002.002c.075.085.05.994 1.307.994a.1.1 0 0 0 .047-.014l.002-.002h.002v-.006h-.002v-.002h-.002l-.002-.002-.018-.004h14.3c1.318.05 1.318 0 1.318-1.002.035-.894.008-.99-.938-1.072zm14.644 2.283c-1.319 0-1.45.04-1.715 1.002 0 1 .092 1.102 1.319 1.302 3.957 1.202 8.179 2.903 12.664 5.006h2.639v-1.402l-1.848-.7a75 75 0 0 0-13.059-5.208m-43.652.79c-4.09 1.102-8.31 2.504-13.455 4.407 0 0-1.32 1.002 0 1.303l1.32 1.002c5.013-1.803 9.234-3.206 13.244-4.307 1.32 0 1.319-1.002 1.319-1.303 0-1.001-1.32-1-1.715-1zm658.773.504c-.6.036-.698.269-.796 1.02-.093 1.001-.001 1.101 1.318 1.201l.54.051c5.146 1.001 10.158 1.7 13.997 2.502v.05s1.318 0 1.318-1.001c0-1.002.001-1.101-1.318-1.201-3.826-1.002-8.97-1.903-14.273-2.604a7 7 0 0 0-.786-.018M663.4 544.85l1.319.96s-.053 1.103 0 1.303c1.847 1.002 3.826 1.401 5.804 2.002 2.639 1.002 5.278 1.603 7.917 2.203a.1.1 0 0 1 .03.018l.003.002v.002l.002.002v.002h-.002v.002l-.002.002v.002h-.002c-.01.006-.03.01-.03.01s1.319 0 1.319-1.002c0-1.001-.118-1.102-1.319-1.303-2.506-1.001-5.013-1.302-7.783-2.203-1.847-1.001-3.694-1.2-5.54-2.002 0 0-1.452-.03-1.716 0m75.18 1.312c-1.319 0-1.452 0-1.584 1 0 1.002.001 1.103 1.32 1.203l-.027-.21c5.673 1.201 10.026 1.9 14.326 2.402.036 0 .066.004.075.006v.002c.277-.018 1.246-.14 1.246-.998 0-1.002-.001-1.002-1.32-1.102-4.09 0-8.443-1.201-14.036-2.303m-200.473 1.416c-.556.04-.556.255-.556 1.006v11.086q-.001.187.004.33h2.63q.006-.157.005-.37v-10.944c.092-1.002 0-1.002-1.319-1.102a8 8 0 0 0-.763-.006zm-291.021.002c-.255.014-.497.13-.662.443-4.617 2.304-8.574 4.306-12.004 6.31 0 0-1.32 1 0 1.401h1.32v-.002h.004c.028-.01.202-.04 1.315.002 3.43-1.902 7.254-3.905 11.87-6.209 0 0 1.32-1 0-1.4l-.657-.102s-.625-.472-1.186-.443m-223.127 1.555a310 310 0 0 1-11.871 4.207h-1.32c-1.32 0-1.319 1-1.319 1.3l1.319 1.003v-.07h1.32c4.353-1.403 8.442-2.904 12.004-4.206 1.319 0 1.319-1.002 0-1.303 0 0-.521-.393-1.04-.439zm743.313.47c-1.32-.02-1.319.001-1.319 1.002-.066 1.002 0 1.002 1.319 1.102l-.079-.1c4.881 0 9.63 1.002 14.51 1.002h.08c1.32 0 1.319 0 1.319-1.002.066-1.001 0-1.002-1.319-1.002-4.88 0-9.63 0-14.511-1.001m-371.385.602a127 127 0 0 0-10.686 7.611v1.4h1.319s1.22-.08 1.316-.007v.002l.002.002v.002l.002.002c3.034-2.404 6.463-4.706 10.553-7.51v-1.402s-1.32 0-1.848-.09zm-276.326.8-.66.02s-1.32 0-1.848.08c0 0 0 1.102.133 1.403a99 99 0 0 1 10.029 7.49h2.898v-1.182c-3.166-2.703-6.727-5.307-10.552-7.81m676.771.09c-1.32-.03-1.32.001-1.451 1.003-.04 1.001 0 1.001 1.32 1.101l.04-.1c4.748 0 9.63 0 14.484 1h.092c1.319 0 1.32.002 1.32-1 .026-1-.001-1.001-1.32-1.001-4.881 0-9.63-1.002-14.485-1.002m28.332 1.774c-.594.039-.668.26-.668 1.012-.092 1.001 0 1.001 1.319 1.101 5.276 0 9.894 1.001 14.392 1.202 0 0 1.318 0 1.318-1.002.08-1.002.001-1.002-1.318-1.102h.197c-4.485 0-9.233-1-14.457-1.201a8 8 0 0 0-.783-.01M692.117 553l-.05.102q.024-.009.05-.016zm0 .086c.001.922.038 1.02 1.319 1.117 2.638 0 5.54 1 8.707 1.3h2.505l2.903 1.003a.1.1 0 0 1 .037.004h.002v.002h.002v.004l-.002.002-.002.002-.002.002c-.012.008-.035.014-.035.014s1.318 0 1.318-1c0-1.002 0-1.003-1.318-1.204h-5.672c-3.166 0-6.069-1-8.707-1.3-.502 0-.831 0-1.055.054m-.05.016c-.322.099-.4.34-.477.931zm-177.247 1.11s-1.32.001-1.584 1.003c0 1.201-1.318 2.203-1.318 3.304-.29.485-.548.978-.785 1.48h2.976q.231-.62.448-1.22c0-1.101 1.318-2.202 1.318-3.404l.264.039c0-1.001 0-1.101-1.319-1.201m340.297 1.768c-.247.012-.412.036-.742.036-1.32 0-1.452 0-1.584 1.002-.119 1.001.001 1.1 1.32 1.2h1.979c3.627.787 6.846 1.203 9.722 1.782h3.493a.9.9 0 0 0 .107-.44c0-1-.118-1.102-1.318-1.302l.527.06c-3.43-1.001-7.518-1.601-12.267-2.302-.66-.045-.99-.047-1.237-.036m-133.28.635c-1.318 0-1.451 0-1.583 1.002l.264-.01c0 1.002 0 1.101 1.32 1.201l7.027 1.192h8.473c-.008-.796-.106-.888-1.32-.98z" style="fill:#cdbf94;fill-opacity:1;fill-rule:nonzero;stroke:none;stroke-width:4.05469"/></svg>